<?xml version="1.0" encoding="utf-8"?>
<!-- Generator: Adobe Illustrator 17.0.0, SVG Export Plug-In . SVG Version: 6.00 Build 0)  -->
<!DOCTYPE svg PUBLIC "-//W3C//DTD SVG 1.1//EN" "http://www.w3.org/Graphics/SVG/1.1/DTD/svg11.dtd">
<svg version="1.1"
	 id="Layer_1" xmlns:inkscape="http://www.inkscape.org/namespaces/inkscape" xmlns:rdf="http://www.w3.org/1999/02/22-rdf-syntax-ns#" xmlns:cc="http://creativecommons.org/ns#" xmlns:dc="http://purl.org/dc/elements/1.1/" xmlns:sodipodi="http://sodipodi.sourceforge.net/DTD/sodipodi-0.dtd" xmlns:svg="http://www.w3.org/2000/svg" inkscape:version="0.48.1 " sodipodi:docname="Colorful_Animal_Penguin.svg"
	 xmlns="http://www.w3.org/2000/svg" xmlns:xlink="http://www.w3.org/1999/xlink" x="0px" y="0px" width="361.481px"
	 height="427.971px" viewBox="518.277 510.566 361.481 427.971" enable-background="new 518.277 510.566 361.481 427.971"
	 xml:space="preserve">
<g id="g489" transform="matrix(6.63834,0,0,6.63834,-6641.3825,-6142.4777)">
	<path id="path491" inkscape:connector-curvature="0" fill="#E25454" d="M1129.651,1035.183
		c-5.864-14.169-9.208-14.975-9.889-14.976c-5.425-19.851-15.084-17.942-15.084-17.942c-6.55,0.189-10.487,7.905-12.852,17.41
		c-0.476-0.046-3.851,0.21-9.96,14.973c-6.049,14.615-2.161,22.119-1.448,23.285c0,0,0.134,0.247,0.244,0.243
		c0.11-0.005,0.288-0.339,0.288-0.339c0.369-0.456,4.729-5.957,7.656-14.269c-0.39,6.969-0.306,12.001-0.305,12.006
		c0,0,0.277,3.273,11.323,4.201c-2.112,1.306-5.059,2.053-5.059,2.053l1.372,2.498l2.396-2.291l-2.829,3.003l1.709,1.646
		l2.519-3.107l-1.253,2.012l2.235,0.907c1.269-1.404,2.912-4.262,3.833-6.492c0.475,0.007,0.963,0.011,1.466,0.011
		c1.116,0,2.158-0.019,3.134-0.053c0.644,2.125,1.673,4.681,2.871,6.007l2.498-0.785l-0.5-1.998l1.856,3.068l2.372-1.607
		l-2.829-3.002l2.396,2.291l1.372-2.498c0,0-2.69-0.682-4.771-1.882c8.936-1.146,8.938-4.036,8.938-4.036
		c0.01-3.874-0.068-7.466-0.22-10.799c2.92,7.966,7.075,13.207,7.434,13.651c0,0,0.179,0.334,0.289,0.338
		c0.11,0.005,0.244-0.242,0.244-0.242C1131.812,1057.302,1135.699,1049.797,1129.651,1035.183L1129.651,1035.183z"/>
	<path id="path493" inkscape:connector-curvature="0" fill="#FFFFFF" d="M1109.495,1006.621c-2.675-0.16-3.505,2.194-3.719,2.48
		c-0.214,0.285-0.463-0.142-0.463-0.142s-3.002-3.407-6.467-0.892c-5.209,3.781-11.894,45.764-5.057,48.342
		c6.244,2.355,12.666,1.998,12.666,1.998c13.129,0,13.7-2.854,13.7-2.854C1121.367,1006.889,1109.495,1006.621,1109.495,1006.621z
		 M1108.081,1013.326c0.65-0.028,1.207,0.727,1.249,1.685c0.04,0.958-0.455,1.756-1.102,1.784c-0.649,0.027-1.208-0.729-1.248-1.686
		C1106.939,1014.152,1107.432,1013.353,1108.081,1013.326L1108.081,1013.326z M1101.264,1015.441
		c-0.284-0.942,0.018-1.863,0.67-2.06c0.652-0.194,1.41,0.408,1.693,1.351c0.283,0.94-0.017,1.863-0.67,2.059
		C1102.305,1016.985,1101.546,1016.38,1101.264,1015.441z M1108.866,1026.379c0,0-4.438-1.748-6.208-6.864
		c0,0,3.603-1.481,6.885-0.339C1109.543,1019.175,1110.749,1022.344,1108.866,1026.379L1108.866,1026.379z"/>
</g>
</svg>
