<?xml version="1.0" encoding="UTF-8"?>
<!-- Generator: Adobe Illustrator 15.0.2, SVG Export Plug-In . SVG Version: 6.00 Build 0)  -->
<!DOCTYPE svg PUBLIC "-//W3C//DTD SVG 1.1//EN" "http://www.w3.org/Graphics/SVG/1.1/DTD/svg11.dtd">
<svg version="1.1" id="Layer_1" xmlns="http://www.w3.org/2000/svg" xmlns:xlink="http://www.w3.org/1999/xlink" x="0px" y="0px" width="76.355px" height="90.702px" viewBox="0 0 76.355 90.702" enable-background="new 0 0 76.355 90.702" xml:space="preserve">
<path d="M34.189,38.28v0.415c-1.968,0.483-3.767,1.865-5.387,4.144c-1.243,2.037-1.865,3.902-1.865,5.594v2.486  c0,1.071,0.273,2.59,0.829,4.559h0.208c0-2.832,1.102-6.354,3.315-10.567c1.793-1.658,2.76-2.486,2.901-2.486h0.208v0.207  c-3.042,2.936-4.559,6.389-4.559,10.36v1.865l1.036,7.045v0.622c0,1.105-0.348,2.417-1.036,3.937h-0.415l0.208-1.45v-0.829  c0-1.347-0.694-2.59-2.072-3.73h-0.207c-0.518,2.797-2.797,6.458-6.838,10.982c-4.803,4.559-7.704,8.081-8.702,10.567h-0.415  c0-1.692,2.415-5.422,7.252-11.188h-0.207c-4.941,4.006-7.978,8.011-9.117,12.017c0,0.208-0.141,0.829-0.415,1.865  c0,3.453,0.964,5.18,2.901,5.18h0.207c1.171,0,2.138-0.69,2.901-2.071c-0.104-1.658-0.659-2.486-1.658-2.486h-0.207  c-0.208,0-0.486,0.275-0.829,0.828c0,0.173,0.415,0.587,1.243,1.243c-0.518,0.415-1.004,0.622-1.45,0.622H11.19  C10.22,87.56,9.74,86.8,9.74,85.729c0-1.589,1.103-2.486,3.315-2.693c1.554,0,2.518,1.104,2.901,3.314v0.415  c0,2.037-1.108,3.35-3.315,3.937h-0.415c-2.834,0-4.423-1.934-4.766-5.802v-0.414c0-2.625,2.415-7.391,7.252-14.297  c0.549-1.657,0.829-2.832,0.829-3.522c0-1.451-1.108-2.279-3.315-2.486c-1.036,0-3.456,1.174-7.252,3.522  c-0.555,0.277-1.315,0.415-2.281,0.415H1.865C0.622,67.841,0,67.496,0,67.081l0.415-0.207c0.449,0.276,0.863,0.415,1.243,0.415  h1.036c3.038-1.209,4.56-3.419,4.56-6.63c0-2.003-1.658-4.42-4.974-7.252c-0.276-0.863-0.415-1.554-0.415-2.072  c0-1.485,1.174-2.59,3.524-3.315c1.793,0.311,2.693,1.14,2.693,2.487H7.875l0.207,0.414c-0.311,1.658-1.139,2.486-2.486,2.486  c-1.243-0.276-1.865-0.897-1.865-1.865c0.104-0.829,0.311-1.243,0.622-1.243h0.415c0,0.967,0.207,1.451,0.622,1.451  c0.688-0.208,1.036-0.691,1.036-1.451c-0.208-0.69-0.622-1.036-1.243-1.036c-1.659,0.379-2.488,1.139-2.488,2.279v0.208  c0,0.725,1.38,2.245,4.146,4.558c1.378,1.554,2.072,3.004,2.072,4.352v2.072c1.309-0.415,2.693-0.76,4.144-1.036  c3.174,0.622,4.766,2.556,4.766,5.802c2.622-0.829,4.832-3.177,6.63-7.045c0.55-2.486,0.829-4.006,0.829-4.558  c0-3.212-1.522-5.422-4.558-6.63l-1.243-0.208h-2.487c-2.42,0.311-4.906,1.554-7.459,3.729H9.326v-0.207  c2.863-3.591,6.04-5.387,9.531-5.387H20.1c1.585,0,2.967,0.483,4.144,1.451c0-2.59,2-5.629,6.009-9.117  C31.703,38.695,33.013,38.28,34.189,38.28z M11.967,0.363c2,0,3.174,1.312,3.522,3.937c-0.415,1.52-1.451,2.279-3.108,2.279  c-1.074,0-1.695-0.898-1.865-2.694c0.273-0.829,0.829-1.243,1.657-1.243h0.208v0.208l-0.415,0.622v0.414  c0,0.208,0.342,0.484,1.036,0.829c0.584-0.208,0.999-0.553,1.243-1.036V3.263c0-1.243-0.901-1.865-2.694-1.865  c-1.488,0-3.418,1.658-5.801,4.973c-0.97,1.45-1.592,3.108-1.865,4.973c0,6.7,4.832,12.087,14.504,16.162  c1.968,0.691,3.418,1.036,4.351,1.036v0.414h-0.415c-6.564,0-12.504-3.108-17.819-9.324C3.54,17.836,3.056,16.8,3.056,16.524H2.849  v1.243c0,3.143,2.14,8.046,6.424,14.711c0.964,1.969,1.451,3.35,1.451,4.144v1.658c0,1.071-0.348,2.314-1.036,3.729h0.207  c1.621,0,5.698-2.003,12.225-6.009c2.622-1.52,5.246-2.279,7.874-2.279c1.658,0,3.243,0.76,4.766,2.279v0.208h-0.207  c-1.073-0.829-2.041-1.243-2.901-1.243h-1.243c-3.108,0-6.979,2.072-11.604,6.216c-5.355,5.802-8.599,8.703-9.738,8.703v-0.208  c3.036-3.246,4.559-5.387,4.559-6.423c-2.176,1.105-4.455,1.658-6.838,1.658H5.958c-3.075,0-5.009-1.381-5.803-4.144v-1.036  c0.035-0.276,0.173-0.415,0.415-0.415h0.207v0.829c0.449,1.796,1.347,2.694,2.694,2.694h1.037c2.487,0,3.73-1.658,3.73-4.973  c0-2.486-1.451-5.732-4.352-9.738c-2.073-4.248-3.109-7.908-3.109-10.981v-2.279c0-3.35,1.313-6.872,3.938-10.567  C7.268,1.675,9.688,0.363,11.967,0.363z M10.103,7.407h0.415v0.208c0,4.144,1.931,7.044,5.801,8.702  c0.481,0.276,1.378,0.622,2.694,1.036l-0.415-1.658c0.377-2.348,0.86-3.522,1.451-3.522h0.207v0.208  c-0.279,0.449-0.415,0.863-0.415,1.243c0,2.003,2,4.213,6.009,6.63c3.937,3.971,6.282,7.494,7.045,10.567  c0,0.518,0.207,1.208,0.622,2.072L33.102,33.1c-1.695-4.731-4.941-8.53-9.738-11.396c-8.288-3.384-12.432-6.078-12.432-8.081  c-0.348,0-0.693-1.313-1.036-3.937C10.031,8.478,10.103,7.718,10.103,7.407z M33.723,5.076h0.208  c0.688,0.346,1.036,0.898,1.036,1.658v0.622h-0.208l-1.036-0.829h-0.207c-0.659,0-1.073,0.967-1.243,2.901  c0,0.76,1.45,5.042,4.351,12.846c0.55,1.934,0.829,3.177,0.829,3.73h0.414c0-1.554,1.658-6.665,4.973-15.333V8.185  c0-0.76-0.348-1.313-1.036-1.658h-0.207l-1.036,0.829c-0.279,0-0.415-0.138-0.415-0.414c0.343-1.071,0.757-1.692,1.243-1.865h0.208  c1.517,0,2.279,1.174,2.279,3.522v0.208c0,0.587-1.658,5.146-4.973,13.675c-0.415,1.83-0.622,3.073-0.622,3.729  c0.207,0,0.622,0.415,1.243,1.243v1.243l-0.829,1.243v0.415c0.895,1.174,1.378,2.21,1.45,3.108c0,0.553-0.763,2.832-2.279,6.838  H37.66c-0.311,0-1.14-2.21-2.486-6.631c0.17-1.416,0.653-2.521,1.45-3.315V29.94l-0.829-1.243v-1.243l1.243-1.45  c0-1.624-1.729-6.803-5.18-15.541c-0.279-0.518-0.414-1.07-0.414-1.657V8.599C31.444,6.25,32.201,5.076,33.723,5.076z M41.183,37.97  h0.415c2.448,0,5.005,1.934,7.667,5.801c0.963,1.278,1.585,2.729,1.864,4.352h0.207c0.792-0.587,1.827-1.001,3.108-1.243h2.693  c2.59,0,5.419,1.588,8.495,4.766l0.414,0.622v0.207h-0.207c-3.005-2.486-5.698-3.729-8.081-3.729h-1.242  c-0.142,0-0.208-0.069-0.208-0.208c-2.213,0-4.077,1.313-5.595,3.937c-0.414,0.898-0.621,1.865-0.621,2.901  c0,4.834,2.207,8.702,6.631,11.603l0.828,0.415c0-2.866,1.036-4.731,3.108-5.594c0.414,0,0.964-0.138,1.657-0.415l4.145,1.036  v-0.208l-0.207-1.036c0-2.763,2-5.595,6.009-8.496c0.273-0.518,0.414-1.07,0.414-1.657c-0.486-1.382-1.45-2.072-2.901-2.072  c-0.207,0-0.486,0.276-0.828,0.829v0.208c0,0.967,0.414,1.45,1.243,1.45c0.273-0.311,0.414-0.794,0.414-1.45h0.207  c0.55,0.207,0.829,0.69,0.829,1.45c-0.452,1.105-1.073,1.658-1.865,1.658c-1.45,0-2.278-0.898-2.486-2.694  c0.17-1.657,0.86-2.486,2.072-2.486h0.622c2.345,0.276,3.522,1.451,3.522,3.522v0.208c0,0.897-1.522,2.762-4.559,5.594  c-0.311,0.69-0.59,1.796-0.829,3.315c0,3.004,1.45,5.146,4.352,6.423h1.243l1.45-0.414l0.207,0.414  c-0.829,0.553-1.45,0.829-1.864,0.829h-0.829c-1.626,0-4.182-1.174-7.667-3.522c-1.035-0.276-1.729-0.415-2.072-0.415  c-2.071,0-3.107,0.829-3.107,2.486c0,1.968,2.072,5.975,6.216,12.018c1.243,2.348,1.865,4.489,1.865,6.423  c-0.486,3.729-2.072,5.595-4.766,5.595h-0.415c-2.213-0.449-3.314-1.899-3.314-4.352c0-2.21,1.171-3.315,3.521-3.315  c1.414,0,2.312,0.967,2.694,2.901c-0.383,1.381-1.073,2.072-2.071,2.072h-0.208c-0.726,0-1.212-0.276-1.45-0.829  c0.311-0.104,0.725-0.38,1.243-0.829c-0.176-0.69-0.383-1.036-0.622-1.036H62.11c-0.693,0-1.177,0.346-1.45,1.036v1.243  c0.273,1.52,1.036,2.279,2.278,2.279h0.208c2.072,0,3.108-1.313,3.108-3.937v-1.243c0-3.385-2.559-7.598-7.667-12.64  c-0.349,0-1.036-0.483-2.071-1.45v0.414c0.377,0.034,2.104,2.106,5.18,6.216c1.412,2.107,2.176,3.695,2.279,4.766h-0.207  c-1.902-3.246-5.011-6.906-9.324-10.981c-3.802-4.386-5.943-7.908-6.424-10.567h-0.207c-1.385,1.036-2.072,2.21-2.072,3.522v1.036  l0.207,1.451h-0.414c-0.693-1.623-1.035-2.728-1.035-3.315v-0.829l1.035-8.081v-1.036c0-4.006-1.522-7.528-4.558-10.567v-0.207  h0.207c4.003,3.004,6.009,7.424,6.009,13.261c0.828-1.071,1.242-2.866,1.242-5.387v-0.829c-0.141-5.318-2.486-8.91-7.044-10.774  h-0.207V37.97z M64.751,0c3.14,0,6.248,2.486,9.324,7.459c1.103,3.074,1.657,5.629,1.657,7.667v0.415  c0,5.318-1.864,10.706-5.594,16.162c-1.243,1.692-1.865,3.764-1.865,6.216c0.343,3.039,1.586,4.558,3.729,4.558h1.451  c1.517-0.587,2.278-1.761,2.278-3.522h0.208c0.273,0.035,0.414,0.173,0.414,0.415v0.622c0,2.59-1.937,4.109-5.802,4.559h-1.45  c-2.072,0-4.285-0.622-6.63-1.865v0.207c0.932,1.796,2.59,3.937,4.973,6.423v0.207h-0.208c-0.866,0-4.803-3.591-11.81-10.774  c-3.938-2.763-7.045-4.144-9.324-4.144h-1.658c-0.414,0-1.315,0.415-2.693,1.243v-0.207c1.275-1.52,3.07-2.279,5.387-2.279  c3.071,0,8.044,2.279,14.919,6.837c2.207,0.967,3.657,1.451,4.352,1.451h0.414c-0.556-1.071-0.97-2.245-1.243-3.522  c0-3.074,1.865-7.287,5.595-12.639c1.657-3.315,2.486-6.078,2.486-8.288v-1.036h-0.207c-1.281,3.557-4.113,6.665-8.496,9.324  c-4.388,2.072-7.634,3.108-9.737,3.108H53.77v-0.415h0.414c6.49-1.554,11.324-4.178,14.505-7.874  c2.486-3.177,3.729-5.732,3.729-7.667V10.36c0-2.555-1.865-5.387-5.595-8.495c-0.693-0.415-1.243-0.622-1.657-0.622h-1.865  c-0.176,0-0.518,0.345-1.036,1.036v1.036c0,0.208,0.343,0.553,1.036,1.036c0.828-0.276,1.243-0.552,1.243-0.829V3.108  c0-0.276-0.207-0.415-0.622-0.415V2.279h0.415c1.103,0.138,1.657,0.622,1.657,1.45c0,1.658-0.828,2.486-2.486,2.486  c-1.177,0-2.006-0.897-2.486-2.693C61.022,1.554,62.265,0.38,64.751,0z M64.596,7.2h0.414c0.273,1.105,0.415,1.934,0.415,2.486  c0,4.835-3.802,8.495-11.396,10.982c-5.492,2.693-9.154,6.216-10.982,10.567c-0.452,1.243-0.797,1.865-1.036,1.865  c0-0.138-0.072-0.207-0.207-0.207c2.138-6.837,5.388-11.534,9.738-14.09c2.622-1.727,3.937-3.591,3.937-5.594  c-0.279-0.449-0.414-0.794-0.414-1.036h0.207c0.446,0,0.933,1.174,1.451,3.522c-0.279,0.863-0.415,1.416-0.415,1.658h0.208  c5.387-2.003,8.08-4.627,8.08-7.874V7.2z"/>
</svg>