<svg width="476" height="326" xmlns="http://www.w3.org/2000/svg">

 <g id="imagebot_2">
  <title>imagebot_2</title>
  <g transform="translate(102 -1) matrix(3.08344 0 0 3.08344 -9.85843 -17.5033)" id="imagebot_157">

   <metadata fill="#000000" id="imagebot_156">image/svg+xml</metadata>
   <g transform="matrix(0.10326 0 0 0.10326 0 0)" id="imagebot_121" label="Layer 1">
    <path fill="#000000" fill-rule="evenodd" id="imagebot_155" d="M 70.7948 170.899 C 70.7874 170.845 71.2335 170.736 72.1121 170.53 C 72.9906 170.325 74.3009 170.02 76.0097 169.514 C 77.7185 169.008 79.8249 168.295 82.2958 167.294 C 84.7666 166.292 87.6006 164.993 90.7813 163.454 C 94.2463 161.773 98.1162 159.765 102.369 157.407 C 106.623 155.048 111.258 152.336 116.289 149.321 C 124.87 144.178 134.568 138.105 145.477 131.322 C 154.87 125.483 165.155 119.11 176.506 112.535 C 176.506 112.535 176.506 112.535 176.506 112.535 C 186.026 107.021 196.296 101.337 207.56 96.0471 C 216.585 91.8056 226.285 87.752 236.885 84.9579 C 244.987 82.8064 253.801 81.3591 262.875 82.4832 C 266.67 82.9599 270.485 83.9524 274.102 85.6156 C 277.619 87.2403 280.881 89.5003 283.691 92.2883 C 285.412 93.989 286.967 95.9438 288.184 98.165 C 289.263 100.141 290.032 102.31 290.41 104.582 C 290.776 106.822 290.762 109.104 290.426 111.327 C 290.064 113.715 289.369 116.024 288.46 118.215 C 286.305 123.393 283.1 128.055 279.556 132.344 C 275.238 137.593 270.337 142.434 265.182 147.06 C 252.935 158.057 239.139 168.092 224.701 178.04 C 209.326 188.638 193.082 199.103 176.349 209.942 C 161.044 219.857 145.29 230.03 129.595 241.141 C 122.934 245.856 116.296 250.735 109.813 255.927 C 104.361 260.295 99.0204 264.852 94.0582 269.826 C 90.1465 273.759 86.4551 277.869 83.5804 282.448 C 83.5803 282.448 83.5803 282.448 83.5803 282.448 C 81.4684 285.885 79.7141 289.462 79.4394 293.066 C 79.4394 293.066 79.4394 293.066 79.4394 293.066 C 79.3051 294.563 79.4019 296.068 79.783 297.459 C 80.1594 298.891 80.8595 300.284 81.7668 301.56 C 81.7669 301.56 81.7669 301.56 81.7669 301.56 C 82.8233 303.052 84.2176 304.389 85.7763 305.617 C 87.6976 307.122 89.8762 308.398 92.1831 309.551 C 99.605 313.237 107.7 315.762 116.052 316.816 C 124.152 317.847 132.522 317.504 140.791 316.066 C 149.482 314.555 158.074 311.83 166.466 308.336 C 175.514 304.566 184.315 299.887 192.923 294.651 C 211.83 283.153 229.709 269.062 247.327 253.926 C 265.855 238 284.018 220.832 302.492 203.221 C 320.215 186.323 338.193 168.961 357.181 151.971 C 373.765 137.126 391.141 122.422 410.367 109.562 C 418.546 104.091 427.107 98.9694 436.174 94.6052 C 444.147 90.7632 452.568 87.5166 461.426 85.444 C 469.378 83.5806 477.712 82.7496 486.078 83.4691 C 486.078 83.4691 486.078 83.4691 486.078 83.4691 C 494.263 84.1885 502.324 86.4613 509.738 90.1551 C 509.738 90.1551 509.738 90.1551 509.738 90.1551 C 513.006 91.7697 516.19 93.7982 519.05 96.3748 C 519.05 96.3748 519.05 96.3749 519.05 96.3749 C 521.445 98.5349 523.542 101.12 525.129 104.085 C 525.129 104.085 525.129 104.085 525.129 104.085 C 526.587 106.843 527.529 109.833 527.944 112.89 C 527.944 112.89 527.944 112.89 527.944 112.89 C 528.362 116.037 528.267 119.17 527.798 122.178 C 526.711 129.042 524.049 135.372 520.851 141.115 C 517.136 147.856 512.658 154.086 507.868 159.961 C 497.938 172.156 486.571 183.184 474.564 193.46 C 474.564 193.46 474.564 193.46 474.564 193.46 C 469.673 197.65 464.642 201.73 459.44 205.639 C 459.44 205.639 459.44 205.639 459.44 205.639 C 456.053 208.19 452.528 210.776 448.684 213.095 C 444.249 215.761 439.73 218.162 435.263 220.52 C 435.263 220.52 435.263 220.52 435.263 220.52 C 428.717 223.979 422.12 227.358 415.514 230.734 C 397.595 239.892 379.503 249.063 361.375 258.497 C 339.431 269.917 317.397 281.691 295.414 294.031 C 272.456 306.919 249.544 320.401 226.977 334.863 C 205.945 348.345 185.189 362.612 165.472 378.46 C 149.128 391.617 133.357 405.665 120.401 422.071 C 115.239 428.611 110.561 435.472 106.989 442.81 C 103.99 449.005 101.724 455.49 101.02 462.06 C 101.02 462.06 101.02 462.06 101.02 462.06 C 100.368 467.992 100.99 474.081 103.045 479.595 C 105.265 485.717 109.282 491.293 114.109 496.156 C 114.599 496.651 115.2 497.082 115.858 497.431 C 116.564 497.811 117.398 498.093 118.303 498.31 C 120.52 498.865 123.094 498.783 125.827 498.506 C 125.827 498.506 125.827 498.506 125.827 498.506 C 129.354 498.112 132.932 497.204 136.559 496.089 C 136.559 496.089 136.559 496.089 136.559 496.089 C 141.054 494.696 145.502 492.946 149.938 491.02 C 161.274 486.096 172.271 480.103 183.201 473.759 C 196.793 465.863 210.152 457.371 223.446 448.604 C 255.25 427.628 286.561 405.155 318.062 382.266 C 352.029 357.585 386.122 332.328 420.782 307.142 C 452.827 283.855 485.327 260.53 518.951 238.224 C 533.169 228.791 547.613 219.536 562.435 210.747 C 574.648 203.502 587.157 196.518 600.201 190.38 C 609.916 185.789 620.112 181.516 631.034 178.964 C 635.057 178.019 639.301 177.347 643.715 177.288 C 643.715 177.288 643.715 177.288 643.715 177.288 C 647.219 177.215 650.966 177.671 654.673 179.035 C 657.951 180.27 660.935 182.359 663.25 185.193 C 665.699 188.333 667.151 191.868 667.843 195.336 C 667.843 195.336 667.844 195.336 667.844 195.337 C 668.776 199.849 668.832 204.3 668.48 208.497 C 668.48 208.497 668.48 208.497 668.48 208.497 C 668.033 214.162 666.962 219.657 665.627 224.964 C 662.736 236.394 657.445 246.913 651.174 256.486 C 643.6 268.092 634.603 278.609 625.061 288.417 C 625.061 288.418 625.061 288.418 625.061 288.418 C 613.807 300.001 601.707 310.708 589.229 320.889 C 575.09 332.428 560.415 343.322 545.457 353.824 C 531.357 363.725 517.002 373.302 502.459 382.644 C 482.216 395.648 461.739 408.117 441.225 420.306 C 403.132 442.943 364.806 464.568 326.753 485.986 C 289.623 506.884 252.722 527.531 216.571 548.778 C 200.065 558.479 183.725 568.303 167.662 578.413 C 153.26 587.478 139.087 596.754 125.337 606.487 C 113.605 614.794 102.188 623.388 91.4766 632.659 C 82.9196 640.081 74.8006 647.813 68.0127 656.437 C 65.2954 659.888 62.8133 663.438 60.7734 667.151 C 60.7734 667.151 60.7733 667.151 60.7733 667.151 C 59.0417 670.317 57.6076 673.545 56.7491 676.825 C 56.0037 679.685 55.639 682.577 55.8734 685.327 C 56.0766 687.971 56.824 690.604 58.0199 693.001 C 58.1138 693.189 58.247 693.37 58.3907 693.496 C 58.5395 693.654 58.8214 693.81 59.1738 693.978 C 60.1335 694.483 61.6282 694.563 63.3952 694.627 C 63.3953 694.627 63.3954 694.627 63.3954 694.627 C 65.8089 694.642 68.3649 694.24 71.0334 693.706 C 71.0335 693.706 71.0336 693.706 71.0336 693.706 C 74.4801 693.001 77.9301 692.006 81.402 690.883 C 81.4021 690.883 81.4021 690.883 81.4022 690.883 C 90.6939 687.873 99.7723 684 108.81 679.888 C 120.572 674.53 132.116 668.706 143.556 662.698 C 172.766 647.354 201.139 630.888 229.132 614.242 C 262.303 594.516 294.844 574.442 326.956 554.411 C 360.478 533.501 393.512 512.615 426.182 492.006 C 456.39 472.95 486.28 454.101 516.03 435.791 C 528.718 427.982 541.388 420.269 554.084 412.733 C 554.084 412.733 554.084 412.733 554.084 412.733 C 564.599 406.492 575.142 400.355 585.797 394.484 C 593.679 390.139 601.665 385.87 609.932 382.092 C 612.812 380.774 615.781 379.499 618.879 378.395 C 618.879 378.395 618.879 378.395 618.879 378.395 C 620.957 377.635 623.289 376.905 625.907 376.522 C 625.907 376.522 625.907 376.522 625.907 376.522 C 632.413 375.632 638.968 374.9 645.572 374.505 C 650.49 374.206 655.507 374.092 660.578 374.448 C 664.072 374.67 667.782 375.173 671.502 376.417 C 672.864 376.872 674.276 377.5 675.673 378.363 C 676.829 379.068 677.958 380.021 678.967 381.243 C 679.872 382.363 680.553 383.669 680.966 385.105 C 681.362 386.583 681.466 388.024 681.331 389.364 C 681.178 390.895 680.825 392.288 680.355 393.526 C 679.801 395.015 679.125 396.374 678.395 397.613 C 676.519 400.799 674.292 403.579 672.018 406.099 C 672.018 406.099 672.018 406.099 672.018 406.099 C 669.025 409.439 665.84 412.506 662.609 415.414 C 653.949 423.213 644.763 430.182 635.545 436.834 C 623.557 445.49 611.353 453.628 599.134 461.5 C 568.397 481.304 537.443 499.548 506.891 517.116 C 471.926 537.223 437.386 556.367 403.521 574.89 C 370.634 592.88 338.366 610.259 306.885 627.253 C 293.329 634.57 279.922 641.813 266.692 649.03 C 255.961 654.882 245.351 660.704 234.918 666.596 C 230.876 668.879 226.866 671.17 222.905 673.495 C 219.845 675.291 216.825 677.094 213.878 678.958 C 213.878 678.958 213.878 678.958 213.878 678.958 C 211.88 680.225 209.959 681.456 208.219 682.784 C 207.684 683.199 207.225 683.554 206.886 683.893 C 206.775 684.009 206.714 684.064 206.716 684.07 C 206.718 684.117 206.792 683.952 206.969 683.585 C 206.969 683.585 206.968 683.585 206.968 683.585 C 205.646 687.065 204.505 690.538 203.766 694.025 C 203.766 694.025 203.766 694.025 203.766 694.025 C 203.216 696.674 202.854 699.256 202.987 701.704 C 203.103 703.551 203.407 705.284 204.129 706.65 C 204.708 707.82 205.624 708.861 206.711 709.601 C 207.937 710.475 209.544 711.02 211.281 711.408 C 213.457 711.877 215.804 711.963 218.225 711.897 C 224.882 711.703 231.566 710.176 238.245 708.396 C 247.287 705.964 256.114 702.863 264.828 699.572 C 275.613 695.496 286.164 691.091 296.563 686.602 C 322.141 675.559 346.726 664.065 370.706 653.096 C 398.417 640.42 425.271 628.348 451.491 617.587 C 464.858 612.099 478.065 606.917 491.138 602.223 C 504.211 597.529 517.151 593.323 529.971 589.736 C 541.931 586.389 553.814 583.603 565.601 581.703 C 576.288 579.978 586.942 578.98 597.408 579.242 C 606.651 579.466 615.819 580.734 624.356 583.681 C 632.246 586.406 639.488 590.722 645.218 596.475 C 648.833 600.101 651.972 604.245 654.134 608.889 C 656.013 612.944 657.039 617.348 657.078 621.749 C 657.104 626.229 656.151 630.573 654.594 634.56 C 652.811 639.125 650.323 643.253 647.544 646.997 C 643.973 651.808 639.966 656.077 635.771 659.958 C 631.575 663.839 627.19 667.334 622.814 670.571 C 611.25 679.144 599.496 686.015 588.239 691.985 C 574.349 699.353 561.123 705.312 548.901 710.356 C 548.901 710.356 548.901 710.356 548.901 710.356 C 534.459 716.316 521.388 720.977 509.921 724.664 C 503.212 726.822 497.048 728.654 491.458 730.172 C 485.868 731.69 480.852 732.896 476.445 733.847 C 471.23 734.971 466.857 735.719 463.384 736.166 C 460.185 736.579 457.74 736.744 456.107 736.761 C 454.475 736.779 453.652 736.686 453.652 736.613 C 453.652 736.54 454.473 736.487 456.083 736.326 C 457.693 736.164 460.093 735.858 463.254 735.308 C 466.68 734.711 470.991 733.817 476.146 732.55 C 480.503 731.479 485.461 730.154 490.99 728.52 C 496.518 726.887 502.617 724.941 509.261 722.673 C 520.613 718.797 533.552 713.957 547.84 707.834 C 547.84 707.834 547.84 707.834 547.84 707.834 C 559.933 702.651 573.003 696.57 586.694 689.11 C 597.792 683.061 609.337 676.156 620.607 667.624 C 624.873 664.389 629.123 660.937 633.152 657.15 C 637.181 653.362 640.989 649.239 644.326 644.635 C 646.911 641.068 649.193 637.23 650.756 633.086 C 652.113 629.485 652.936 625.643 652.864 621.798 C 652.809 618.036 651.88 614.227 650.224 610.715 C 648.32 606.652 645.44 602.952 642.086 599.608 C 636.876 594.421 630.179 590.528 622.862 588.04 C 614.896 585.33 606.202 584.217 597.302 584.041 C 587.221 583.849 576.882 584.899 566.414 586.65 C 554.876 588.585 543.203 591.404 531.399 594.783 C 518.742 598.406 505.952 602.649 493.008 607.384 C 480.064 612.119 466.966 617.345 453.68 622.881 C 427.636 633.736 400.922 645.912 373.292 658.713 C 349.393 669.785 324.825 681.409 299.176 692.618 C 288.748 697.176 278.123 701.665 267.213 705.842 C 258.412 709.213 249.391 712.42 240.034 714.984 C 233.184 716.877 225.991 718.511 218.463 718.805 C 215.697 718.917 212.805 718.795 209.876 718.208 C 207.498 717.747 205.055 716.859 202.794 715.364 C 200.724 713.958 199.03 712.045 197.886 709.795 C 196.64 707.254 196.079 704.588 195.979 702.051 C 195.826 698.755 196.224 695.57 196.869 692.567 C 196.869 692.567 196.869 692.567 196.869 692.567 C 197.707 688.592 198.937 684.765 200.335 681.07 C 200.335 681.07 200.335 681.07 200.335 681.07 C 200.632 680.388 200.899 679.942 201.107 679.723 C 201.408 679.344 201.683 679.046 201.919 678.821 C 202.613 678.149 203.29 677.601 203.905 677.136 C 205.941 675.581 208.026 674.224 210.054 672.935 C 210.054 672.935 210.054 672.935 210.054 672.935 C 213.096 670.996 216.177 669.14 219.263 667.314 C 223.264 664.946 227.299 662.621 231.354 660.312 C 241.816 654.352 252.438 648.474 263.158 642.578 C 276.38 635.306 289.772 628.01 303.304 620.647 C 334.732 603.545 366.933 586.069 399.737 567.997 C 433.519 549.385 467.956 530.171 502.793 510.013 C 533.244 492.392 564.035 474.14 594.535 454.382 C 606.66 446.528 618.721 438.447 630.515 429.886 C 639.604 423.285 648.535 416.49 656.808 408.992 C 659.889 406.199 662.85 403.343 665.542 400.316 C 665.542 400.316 665.542 400.316 665.542 400.316 C 667.594 397.992 669.473 395.679 670.872 393.237 C 671.407 392.302 671.864 391.402 672.176 390.527 C 672.428 389.798 672.613 389.145 672.647 388.588 C 672.672 388.129 672.663 387.735 672.569 387.473 C 672.507 387.228 672.357 386.957 672.166 386.716 C 671.945 386.41 671.536 386.101 671.03 385.763 C 670.392 385.35 669.585 385.014 668.672 384.691 C 666.095 383.782 663.125 383.437 659.963 383.191 C 655.448 382.873 650.815 382.999 646.104 383.284 C 639.806 383.671 633.475 384.395 627.111 385.275 C 627.111 385.275 627.111 385.275 627.111 385.275 C 625.521 385.472 623.779 386.062 621.85 386.73 C 621.85 386.73 621.85 386.73 621.85 386.73 C 619.115 387.705 616.386 388.889 613.623 390.155 C 605.699 393.789 597.922 397.972 590.109 402.293 C 579.588 408.116 569.141 414.225 558.68 420.46 C 558.68 420.46 558.68 420.46 558.68 420.46 C 546.055 427.985 533.441 435.696 520.791 443.512 C 491.13 461.84 461.301 480.721 431.123 499.825 C 398.49 520.483 365.474 541.425 331.948 562.402 C 299.836 582.494 267.264 602.644 234.027 622.462 C 205.994 639.179 177.493 655.758 148.059 671.26 C 136.531 677.332 124.83 683.247 112.841 688.724 C 103.664 692.922 94.247 696.937 84.4137 700.145 C 84.4137 700.145 84.4136 700.145 84.4136 700.145 C 80.7327 701.348 76.936 702.438 73.0042 703.255 C 73.0042 703.255 73.0041 703.255 73.004 703.255 C 70.0007 703.891 66.7924 704.362 63.4073 704.384 C 63.4072 704.384 63.4071 704.384 63.407 704.384 C 60.9686 704.454 58.1701 704.105 55.2715 702.927 C 54.0808 702.423 52.9064 701.689 51.8109 700.712 C 50.7634 699.752 49.9114 698.622 49.284 697.368 C 47.5312 693.868 46.447 690.037 46.1287 686.099 C 45.8241 682.046 46.2846 678.06 47.2932 674.314 C 48.4345 670.063 50.1614 666.096 52.1957 662.425 C 52.1958 662.425 52.1958 662.425 52.1958 662.425 C 54.5747 658.116 57.3503 654.117 60.3151 650.365 C 67.6892 641.033 76.2306 632.846 85.0426 625.228 C 96.088 615.662 107.752 606.863 119.638 598.442 C 133.579 588.562 147.895 579.178 162.392 570.044 C 178.563 559.854 194.984 549.969 211.543 540.227 C 247.805 518.892 284.753 498.199 321.861 477.298 C 359.901 455.872 398.156 434.278 436.118 411.713 C 456.567 399.556 476.945 387.147 497.055 374.231 C 511.501 364.951 525.743 355.452 539.712 345.642 C 554.526 335.239 569.01 324.492 582.911 313.147 C 595.183 303.13 607.001 292.685 617.901 281.462 C 617.901 281.462 617.901 281.462 617.901 281.461 C 627.14 271.937 635.739 261.926 642.818 251.042 C 648.643 242.048 653.498 232.54 655.962 222.548 C 657.2 217.565 658.183 212.619 658.553 207.728 C 658.553 207.728 658.553 207.727 658.553 207.727 C 658.809 204.083 658.817 200.582 658.11 197.414 C 658.11 197.414 658.11 197.414 658.11 197.414 C 657.561 195.066 656.768 192.916 655.495 191.426 C 654.446 190.075 652.867 189.005 651.131 188.329 C 649.04 187.484 646.505 187.243 643.811 187.23 C 643.811 187.23 643.811 187.23 643.811 187.23 C 640.397 187.246 636.867 187.831 633.272 188.646 C 623.447 190.889 613.91 194.929 604.422 199.361 C 591.79 205.29 579.555 212.12 567.483 219.265 C 552.852 227.928 538.543 237.087 524.405 246.452 C 490.967 268.601 458.564 291.825 426.532 315.061 C 391.9 340.184 357.783 365.411 323.743 390.093 C 292.191 412.973 260.733 435.495 228.696 456.573 C 215.303 465.385 201.78 473.956 187.96 481.962 C 176.876 488.389 165.543 494.532 153.695 499.673 C 149.051 501.689 144.279 503.552 139.344 505.08 C 139.344 505.081 139.344 505.081 139.344 505.081 C 135.388 506.314 131.236 507.337 126.894 507.842 C 126.894 507.842 126.894 507.842 126.894 507.842 C 123.551 508.259 119.913 508.275 116.183 507.451 C 114.612 507.094 113.028 506.531 111.487 505.728 C 110.032 504.964 108.678 503.977 107.481 502.784 C 101.869 497.208 97.1401 490.496 94.2789 482.824 C 91.7188 475.813 90.9363 468.302 91.7666 461.021 C 91.7666 461.021 91.7666 461.021 91.7666 461.021 C 92.6916 453.084 95.2648 445.588 98.6557 438.73 C 102.649 430.615 107.691 423.203 113.161 416.332 C 126.84 399.141 143.114 384.638 159.758 371.336 C 179.86 355.245 200.902 340.828 222.13 327.284 C 244.916 312.743 268.002 299.217 291.094 286.317 C 313.209 273.963 335.349 262.192 357.375 250.791 C 375.58 241.368 393.71 232.229 411.635 223.121 C 418.244 219.763 424.814 216.417 431.304 213.007 C 431.304 213.007 431.304 213.007 431.304 213.007 C 435.767 210.661 440.154 208.348 444.334 205.845 C 447.741 203.814 451.034 201.396 454.388 198.897 C 454.388 198.897 454.388 198.897 454.388 198.897 C 459.434 195.126 464.335 191.171 469.122 187.091 C 469.122 187.091 469.122 187.091 469.122 187.091 C 480.887 177.054 491.933 166.414 501.469 154.742 C 506.059 149.118 510.275 143.311 513.672 137.155 C 516.558 131.865 518.93 126.448 519.745 120.939 C 520.104 118.567 520.2 116.21 519.891 113.979 C 519.891 113.979 519.891 113.979 519.891 113.979 C 519.602 111.834 518.957 109.744 517.966 107.875 C 517.966 107.875 517.966 107.875 517.966 107.875 C 516.909 105.842 515.388 103.985 513.613 102.352 C 513.613 102.352 513.613 102.352 513.613 102.352 C 511.47 100.378 508.897 98.7558 506.137 97.3568 C 506.137 97.3567 506.137 97.3567 506.137 97.3567 C 499.64 94.0949 492.544 92.0699 485.37 91.4229 C 485.37 91.4229 485.37 91.4229 485.37 91.4229 C 478.01 90.7434 470.504 91.4918 463.211 93.1564 C 455.063 95.0197 447.172 98.0517 439.56 101.674 C 430.906 105.799 422.646 110.714 414.663 116.01 C 395.874 128.473 378.726 142.907 362.192 157.591 C 343.288 174.387 325.303 191.638 307.497 208.49 C 288.949 226.047 270.626 243.233 251.87 259.231 C 234.058 274.433 215.808 288.674 196.397 300.386 C 187.549 305.724 178.426 310.516 168.983 314.41 C 160.224 318.024 151.154 320.843 141.886 322.424 C 133.051 323.931 124.043 324.245 115.242 323.097 C 106.157 321.901 97.4088 319.129 89.4066 315.104 C 86.8368 313.818 84.3142 312.309 81.971 310.472 C 80.055 308.976 78.2631 307.206 76.7701 305.122 C 76.77 305.122 76.77 305.122 76.77 305.122 C 75.4737 303.306 74.472 301.247 73.879 299.026 C 73.3154 296.857 73.17 294.637 73.3863 292.484 C 73.3863 292.484 73.3863 292.484 73.3863 292.484 C 73.9397 287.468 76.02 283.02 78.5017 279.223 C 78.5018 279.223 78.5018 279.223 78.5018 279.223 C 81.7813 274.109 85.7681 269.68 89.8745 265.626 C 95.0882 260.462 100.614 255.791 106.19 251.377 C 112.827 246.122 119.582 241.212 126.326 236.495 C 142.217 225.381 158.087 215.26 173.452 205.439 C 190.261 194.693 206.524 184.361 221.883 173.923 C 236.324 164.104 250.016 154.301 262.096 143.601 C 267.176 139.099 271.95 134.464 276.102 129.483 C 279.5 125.389 282.513 121.132 284.436 116.536 C 285.245 114.609 285.862 112.645 286.168 110.674 C 286.452 108.852 286.486 107.015 286.207 105.261 C 285.931 103.485 285.33 101.755 284.482 100.165 C 283.526 98.3608 282.227 96.7152 280.756 95.2234 C 278.31 92.7562 275.458 90.7406 272.387 89.2926 C 269.226 87.795 265.809 86.8821 262.36 86.41 C 254.063 85.2585 245.702 86.5903 237.816 88.5655 C 227.517 91.1654 217.967 95.052 208.995 99.1457 C 197.809 104.253 187.55 109.782 178.004 115.157 C 178.004 115.157 178.004 115.157 178.004 115.157 C 166.625 121.565 156.275 127.791 146.803 133.489 C 135.803 140.107 125.987 146.029 117.286 151.021 C 112.188 153.946 107.475 156.571 103.144 158.842 C 98.8122 161.113 94.8639 163.032 91.3261 164.62 C 88.091 166.076 85.1823 167.29 82.6426 168.202 C 80.1028 169.113 77.9329 169.732 76.1748 170.14 C 74.4166 170.548 73.0708 170.751 72.1672 170.851 C 71.2635 170.951 70.8023 170.953 70.7949 170.899 L 70.7948 170.899 Z"/>
    <path fill="#000000" id="imagebot_154" d="M275.98038,441.46661C248.25021,423.43518 220.97537,399.33627 208.32507,381.68924C192.58505,359.73206 190.26892,343.24551 199.99159,322.37036C203.61722,314.58594 209.56921,306.72803 215.77274,301.5358C229.05556,290.41837 240.35661,291.05084 256.61789,303.82178C263.28784,309.06012 273.74231,320.59827 279.45755,329.02896C281.21207,331.61707 282.88049,333.75 283.16519,333.76886C283.44986,333.78775 286.14499,330.5441 289.1543,326.56085C302.73776,308.58142 317.93756,296.34265 329.41595,294.14249C348.19287,290.5434 374.9873,312.50848 381.24475,336.62985C382.71381,342.29294 382.85522,350.61774 381.58014,356.37408C378.48877,370.32962 363.15561,390.47095 342.78818,407.33035C328.56091,419.10718 287.44815,445.74762 283.49152,445.75369C282.98773,445.75427 279.60773,443.82529 275.98038,441.46661L275.98038,441.46661z"/>
    <path fill="#000000" d="M617.35938,692.17981C610.20935,687.53052 603.1767,681.31677 599.91492,676.7666C595.85645,671.1051 595.25928,666.85413 597.76617,661.47162C598.70105,659.46448 600.23572,657.43835 601.83527,656.09955C605.26013,653.23303 608.17401,653.39612 612.36688,656.68903C614.08667,658.03967 616.78229,661.01471 618.25592,663.18848C618.70831,663.85583 619.13855,664.40576 619.21191,664.41064C619.28534,664.41565 619.98029,663.57916 620.75616,662.55212C624.25861,657.91626 628.17773,654.76056 631.13739,654.19324C635.97888,653.26526 642.88763,658.92877 644.5011,665.14832C644.87988,666.60852 644.91638,668.755 644.58759,670.23926C643.79053,673.83759 639.83698,679.03088 634.58533,683.37799C630.91693,686.41455 620.31628,693.28363 619.29608,693.28522C619.1662,693.28534 618.29468,692.78796 617.35938,692.17981L617.35938,692.17981z" id="imagebot_153"/>
    <path fill="#000000" d="M544.69379,557.24249C526.60242,545.47864 508.80811,529.75635 500.55496,518.24329C490.28604,503.91824 488.77496,493.16229 495.11813,479.54318C497.48352,474.46457 501.36664,469.33798 505.41385,465.95056C514.07965,458.69745 521.45258,459.11008 532.06152,467.44196C536.41309,470.85947 543.23364,478.38705 546.96234,483.8873C548.10699,485.57578 549.19543,486.96735 549.38123,486.97964C549.56696,486.99194 551.32526,484.87579 553.28857,482.2771C562.15051,470.54715 572.06696,462.5625 579.55554,461.12711C591.80579,458.77902 609.28668,473.10922 613.36908,488.84619C614.32751,492.54083 614.41974,497.97198 613.58789,501.72745C611.57104,510.83218 601.56757,523.97253 588.27972,534.97174C578.99774,542.65503 552.17542,560.03546 549.59412,560.03943C549.26544,560.03979 547.0603,558.78131 544.69379,557.24249L544.69379,557.24249z" id="imagebot_152"/>
    <path fill="#000000" d="M137.56218,627.76605C122.85741,618.20435 108.39408,605.42517 101.68588,596.06726C93.33924,584.42383 92.11104,575.68134 97.26679,564.61163C99.18939,560.4837 102.34561,556.31677 105.63522,553.56348C112.67885,547.66809 118.67158,548.00348 127.29462,554.7757C130.83157,557.55347 136.37538,563.67194 139.40607,568.14252C140.33644,569.51495 141.22118,570.64606 141.37215,570.65601C141.5231,570.66602 142.95227,568.94598 144.54805,566.83374C151.75111,557.29962 159.81126,550.80963 165.89803,549.64294C175.85506,547.73438 190.06363,559.38208 193.38184,572.17316C194.16084,575.17615 194.23584,579.59064 193.55968,582.64313C191.92039,590.04352 183.78951,600.72406 172.98906,609.66425C165.44463,615.9093 143.64331,630.03619 141.5452,630.03943C141.27805,630.03973 139.48569,629.01678 137.56218,627.76605L137.56218,627.76605z" id="imagebot_151"/>
    <path fill="#000000" id="imagebot_150" d="M406.22427,678.82532C393.34296,670.44934 380.67331,659.25494 374.797,651.05756C367.48544,640.85797 366.40955,633.19965 370.92593,623.50275C372.61011,619.88672 375.37491,616.23657 378.25659,613.82465C384.42673,608.6604 389.67627,608.95422 397.22998,614.8866C400.32828,617.31989 405.18457,622.67957 407.83948,626.59576C408.65448,627.79803 409.42947,628.78882 409.56168,628.79755C409.69397,628.80658 410.94586,627.29962 412.34378,625.44928C418.65356,617.09747 425.71417,611.41235 431.04608,610.39032C439.76837,608.71851 452.21487,618.92169 455.12167,630.12659C455.80408,632.7572 455.86978,636.62421 455.27737,639.29816C453.84146,645.78076 446.71887,655.13684 437.25778,662.96838C430.64896,668.4389 411.55127,680.81396 409.71326,680.81677C409.47928,680.81702 407.90918,679.92096 406.22427,678.82532L406.22427,678.82532z"/>
    <path fill="#000000" id="imagebot_149" d="M260.06143,211.87485C241.97005,200.11099 224.17574,184.38869 215.92259,172.87563C205.65367,158.5506 204.14261,147.79465 210.48576,134.17554C212.85115,129.09692 216.73427,123.97035 220.78149,120.58291C229.44733,113.32981 236.82021,113.74245 247.42918,122.07431C251.78073,125.49184 258.60129,133.01941 262.32996,138.51965C263.47461,140.20815 264.56311,141.59972 264.74884,141.612C264.93457,141.6243 266.6929,139.50815 268.65619,136.90945C277.51816,125.17952 287.43463,117.19486 294.92322,115.75946C307.1734,113.41138 324.6543,127.74157 328.73669,143.47855C329.69513,147.17319 329.78741,152.60435 328.95551,156.35982C326.93869,165.46452 316.93521,178.60487 303.64734,189.6041C294.36536,197.28738 267.54309,214.66782 264.96176,214.67177C264.63309,214.67215 262.42795,213.41367 260.06143,211.87485L260.06143,211.87485z"/>
    <path fill="#000000" d="M553.2652,375.8139C535.17383,364.05005 517.37952,348.32773 509.12637,336.81467C498.85745,322.48965 497.34637,311.7337 503.68954,298.11459C506.05493,293.03598 509.93805,287.90939 513.98529,284.52197C522.65106,277.26886 530.02399,277.68149 540.63293,286.01337C544.9845,289.43088 551.80505,296.95847 555.53375,302.45871C556.67841,304.14719 557.76685,305.53876 557.95264,305.55106C558.13837,305.56335 559.89667,303.4472 561.85999,300.84851C570.72192,289.11856 580.63837,281.13391 588.12695,279.69852C600.3772,277.35043 617.85809,291.68063 621.94049,307.4176C622.89893,311.11224 622.99115,316.5434 622.1593,320.29886C620.14246,329.40359 610.13898,342.54391 596.85114,353.54315C587.56915,361.22644 560.74683,378.60687 558.16553,378.61081C557.83685,378.61121 555.63171,377.35272 553.2652,375.8139L553.2652,375.8139z" id="imagebot_148"/>
    <path fill="#000000" id="imagebot_147" d="M 144.198 157.26 C 137.048 152.611 130.015 146.397 126.753 141.847 C 122.695 136.186 122.098 131.935 124.604 126.552 C 125.539 124.545 127.074 122.519 128.674 121.18 C 132.098 118.314 135.012 118.477 139.205 121.77 C 140.925 123.12 143.621 126.095 145.094 128.269 C 145.547 128.936 145.977 129.486 146.05 129.491 C 146.124 129.496 146.819 128.66 147.594 127.633 C 151.097 122.997 155.016 119.841 157.976 119.274 C 162.817 118.346 169.726 124.009 171.339 130.229 C 171.718 131.689 171.755 133.836 171.426 135.32 C 170.629 138.918 166.675 144.111 161.424 148.459 C 157.755 151.495 147.155 158.364 146.134 158.366 C 146.004 158.366 145.133 157.868 144.198 157.26 L 144.198 157.26 L 144.198 157.26 Z"/>
    <path fill="#000000" d="M 495.28 183.22 C 488.13 178.57 481.097 172.357 477.835 167.807 C 473.777 162.145 473.179 157.894 475.686 152.512 C 476.621 150.504 478.156 148.478 479.755 147.139 C 483.18 144.273 486.094 144.436 490.287 147.729 C 492.007 149.08 494.703 152.055 496.176 154.228 C 496.629 154.896 497.059 155.446 497.132 155.451 C 497.206 155.456 497.9 154.619 498.676 153.592 C 502.179 148.956 506.098 145.8 509.058 145.233 C 513.899 144.305 520.808 149.969 522.421 156.188 C 522.8 157.648 522.837 159.795 522.508 161.279 C 521.711 164.878 517.757 170.071 512.506 174.418 C 508.837 177.454 498.237 184.324 497.216 184.325 C 497.086 184.325 496.215 183.828 495.28 183.22 L 495.28 183.22 L 495.28 183.22 Z" id="imagebot_146"/>
    <g font-size="128.02145px" font-style="normal" font-weight="normal" fill="#db7093" font-family="Gabriola" id="imagebot_140" transform="scale(0.96369927,1.0376681)">
     <path fill="#000000" id="imagebot_145" d="M 69.3947 713.597 C 69.3947 714.472 69.3738 715.592 69.3322 716.957 C 69.2905 718.322 69.2384 719.994 69.1759 721.974 C 69.1134 723.953 69.0405 726.261 68.9571 728.897 C 68.8738 731.533 68.7904 734.549 68.7071 737.945 C 71.7076 737.841 74.5935 737.752 77.3648 737.679 C 80.1361 737.606 82.8709 737.544 85.5693 737.492 C 88.2676 737.44 90.9712 737.398 93.68 737.367 C 96.3888 737.336 99.1809 737.31 102.056 737.289 C 102.119 735.163 102.187 733.038 102.26 730.913 C 102.332 728.787 102.421 726.547 102.525 724.193 C 102.629 721.838 102.76 719.307 102.916 716.598 C 103.072 713.889 103.265 710.888 103.494 707.596 C 103.515 707.138 103.656 706.747 103.916 706.424 C 104.177 706.101 104.51 705.83 104.916 705.612 C 105.323 705.393 105.776 705.231 106.276 705.127 C 106.776 705.023 107.276 704.971 107.776 704.971 C 108.38 704.971 109.032 705.049 109.73 705.205 C 110.428 705.362 111.11 705.586 111.777 705.877 C 111.464 709.294 111.188 712.566 110.949 715.691 C 110.709 718.817 110.506 721.859 110.339 724.818 C 110.172 727.777 110.026 730.699 109.901 733.585 C 109.776 736.471 109.683 739.383 109.62 742.321 C 109.558 745.259 109.511 748.259 109.48 751.322 C 109.448 754.385 109.433 757.584 109.433 760.918 C 109.433 763.126 109.526 765.012 109.714 766.575 C 109.901 768.138 110.23 769.414 110.698 770.404 C 111.167 771.393 111.798 772.117 112.589 772.576 C 113.381 773.034 114.371 773.263 115.559 773.263 C 116.413 773.263 117.298 773.196 118.215 773.06 C 119.132 772.925 120.268 772.607 121.622 772.107 L 122.497 774.67 C 120.997 775.316 119.601 775.878 118.309 776.358 C 117.017 776.837 115.814 777.233 114.699 777.545 C 113.584 777.858 112.548 778.092 111.589 778.249 C 110.631 778.405 109.714 778.483 108.839 778.483 C 107.651 778.483 106.609 778.259 105.713 777.811 C 104.817 777.363 104.072 776.629 103.479 775.608 C 102.885 774.587 102.442 773.243 102.15 771.576 C 101.858 769.909 101.713 767.846 101.713 765.387 L 101.713 758.292 C 101.713 756.646 101.718 755.078 101.728 753.588 C 101.739 752.098 101.754 750.656 101.775 749.259 C 101.796 747.863 101.817 746.509 101.838 745.196 C 101.858 743.884 101.89 742.581 101.931 741.289 C 99.0559 741.289 96.269 741.3 93.5706 741.321 C 90.8722 741.342 88.1739 741.383 85.4755 741.446 C 82.7771 741.508 80.0371 741.592 77.2554 741.696 C 74.4737 741.8 71.5826 741.925 68.5821 742.071 L 67.5194 777.077 L 60.1119 778.014 L 59.5493 777.952 C 59.7994 771.972 60.0233 766.288 60.2213 760.902 C 60.4192 755.516 60.5911 750.281 60.737 745.196 C 60.8829 740.112 60.9922 735.101 61.0652 730.163 C 61.1381 725.224 61.1746 720.213 61.1746 715.129 C 61.1746 714.15 61.1069 713.311 60.9714 712.613 C 60.836 711.915 60.5807 711.347 60.2057 710.909 C 59.8306 710.472 59.3149 710.154 58.6585 709.956 C 58.0022 709.758 57.1635 709.659 56.1425 709.659 C 54.7673 709.659 53.0065 709.815 50.8604 710.128 L 50.5478 707.534 C 53.5691 706.763 56.1321 706.185 58.2366 705.799 C 60.3411 705.414 62.1018 705.221 63.5187 705.221 C 64.9148 705.221 66.0087 705.403 66.8005 705.768 C 67.5923 706.133 68.1809 706.674 68.5665 707.393 C 68.9519 708.112 69.1863 708.992 69.2697 710.034 C 69.353 711.076 69.3947 712.264 69.3947 713.597 L 69.3947 713.597 Z"/>
     <path fill="#000000" id="imagebot_144" d="M150.25201,744.94617C150.25198,743.30011 149.98109,741.8728 149.43938,740.66418C148.89758,739.45569 148.18913,738.46594 147.31403,737.69495C146.43884,736.92401 145.4491,736.35101 144.34477,735.97589C143.24039,735.60089 142.13605,735.41339 141.03171,735.41333C139.55228,735.41339 138.30206,735.56964 137.2811,735.88214C136.26007,736.19476 135.43179,736.62189 134.7963,737.16364C134.16077,737.70544 133.70235,738.34613 133.42107,739.08582C133.13976,739.82556 132.99911,740.62256 132.99911,741.47687C132.99911,742.47705 133.18143,743.48242 133.54608,744.49298C133.91072,745.5036 134.44727,746.48816 135.15573,747.44659L135.03072,747.79041C133.843,748.37384 132.64488,748.66559 131.43636,748.66553C130.72789,748.66559 130.06633,748.55615 129.45164,748.33734C128.83694,748.11859 128.30562,747.80084 127.85763,747.38409C127.40963,746.96741 127.05541,746.45685 126.79495,745.8526C126.53449,745.24835 126.40426,744.57117 126.40426,743.82098C126.40426,742.59167 126.70118,741.43518 127.29504,740.35162C127.88888,739.26819 128.67548,738.27844 129.65482,737.38239C130.63412,736.48645 131.76973,735.68427 133.06163,734.97577C134.3535,734.26733 135.68706,733.66827 137.0623,733.17859C138.43752,732.68896 139.81795,732.3139 141.20361,732.05341C142.58923,731.79297 143.87592,731.66272 145.06364,731.66272C147.25148,731.66272 149.12158,731.95447 150.67397,732.53784C152.22627,733.12134 153.48689,733.9704 154.45584,735.08514C155.42471,736.19995 156.13316,737.54913 156.58121,739.13269C157.02914,740.71631 157.25314,742.5083 157.25317,744.50861C157.25314,745.88385 157.19588,747.39453 157.08128,749.04059C156.96664,750.68677 156.83641,752.41101 156.6906,754.21338C156.54469,756.01575 156.41446,757.87543 156.2999,759.79242C156.18526,761.70941 156.12796,763.61597 156.12799,765.51215C156.12796,768.51263 156.68533,770.76825 157.80016,772.27887C158.91489,773.78955 160.37868,774.54486 162.19151,774.54486C163.7959,774.54486 165.58788,773.95105 167.56741,772.76337L168.47382,774.1073C167.0777,775.50336 165.55661,776.56604 163.91055,777.29535C162.2644,778.02466 160.53494,778.38928 158.72218,778.38928C157.36775,778.38928 156.11754,778.1601 154.97156,777.70166C153.82549,777.24323 152.83574,776.56085 152.0023,775.65442C151.16879,774.74805 150.52286,773.60724 150.06448,772.23199C149.60603,770.85675 149.37683,769.26276 149.37686,767.44995C149.37683,766.9082 149.39246,766.36646 149.42377,765.82465C149.45496,765.28296 149.52266,764.7099 149.62691,764.10565L149.43938,764.10565C148.54337,765.89758 147.50674,767.66351 146.32948,769.40338C145.15218,771.14325 143.86031,772.69562 142.45384,774.06042C141.04733,775.42523 139.54707,776.5296 137.95308,777.37347C136.35905,778.21735 134.6869,778.63934 132.93661,778.63934C131.49887,778.63934 130.18616,778.38928 128.99846,777.88916C127.81075,777.3891 126.79496,776.70148 125.95107,775.82635C125.10718,774.95117 124.45082,773.91455 123.98199,772.71643C123.51316,771.51831 123.27875,770.21082 123.27875,768.79395C123.27875,766.96027 123.61734,765.29333 124.29454,763.79309C124.97174,762.29285 125.90939,760.94885 127.10752,759.76117C128.30563,758.57349 129.73816,757.54724 131.40511,756.6825C133.07204,755.81781 134.88486,755.09894 136.84352,754.52588C138.80217,753.95288 140.87543,753.52576 143.06331,753.24445C145.25116,752.9632 147.4807,752.82251 149.75194,752.82251C149.89777,751.50983 150.01758,750.23877 150.11137,749.00934C150.20506,747.78003 150.25198,746.4256 150.25201,744.94617zM131.06129,766.41852C131.06128,767.23114 131.1498,768.00732 131.32697,768.74707C131.50406,769.48676 131.78535,770.13788 132.17085,770.7005C132.55632,771.26306 133.04599,771.70587 133.63985,772.02887C134.23369,772.35181 134.94736,772.51331 135.78082,772.51331C136.71848,772.51331 137.68739,772.29449 138.68758,771.85693C139.68771,771.41937 140.67226,770.81512 141.64119,770.04413C142.61008,769.27319 143.53732,768.35114 144.42291,767.27802C145.30846,766.20496 146.10545,765.0329 146.81393,763.76184C147.52235,762.49078 148.11099,761.15204 148.57985,759.74554C149.04865,758.33905 149.356,756.89612 149.50188,755.41669C147.95993,755.45837 146.42844,755.55737 144.90736,755.71362C143.38625,755.86987 141.9433,756.11475 140.57851,756.44812C139.21368,756.78149 137.94785,757.21906 136.78101,757.7608C135.61412,758.30261 134.60875,758.97461 133.76488,759.77679C132.92097,760.57904 132.2594,761.5271 131.78017,762.62103C131.3009,763.71497 131.06128,764.98077 131.06129,766.41852z"/>
     <path fill="#000000" id="imagebot_143" d="M 164.911 735.382 C 167.244 734.674 169.234 734.101 170.88 733.663 C 172.527 733.226 173.907 732.882 175.022 732.632 C 176.137 732.382 177.012 732.21 177.647 732.116 C 178.283 732.022 178.757 731.975 179.069 731.975 C 179.59 731.975 180.08 732.053 180.538 732.21 C 180.997 732.366 181.398 732.632 181.742 733.007 C 182.085 733.382 182.351 733.887 182.539 734.523 C 182.726 735.158 182.82 735.945 182.82 736.882 C 182.82 737.195 182.804 737.81 182.773 738.726 C 182.742 739.643 182.684 740.909 182.601 742.524 C 182.518 744.139 182.408 746.118 182.273 748.462 C 182.138 750.807 181.966 753.562 181.757 756.729 L 182.132 756.761 C 183.758 752.718 185.513 749.14 187.399 746.024 C 189.285 742.909 191.202 740.289 193.15 738.164 C 195.098 736.038 197.041 734.429 198.979 733.335 C 200.917 732.241 202.761 731.694 204.511 731.694 C 205.928 731.694 207.178 731.96 208.262 732.491 C 209.345 733.022 210.288 733.731 211.09 734.616 C 211.892 735.502 212.564 736.523 213.106 737.679 C 213.648 738.836 214.086 740.044 214.419 741.305 C 214.752 742.566 214.992 743.842 215.138 745.134 C 215.284 746.426 215.357 747.634 215.357 748.759 C 215.357 751.822 215.044 754.687 214.419 757.354 C 213.794 760.022 212.94 762.465 211.856 764.684 C 210.773 766.903 209.491 768.888 208.012 770.638 C 206.532 772.388 204.933 773.862 203.214 775.061 C 201.495 776.259 199.693 777.175 197.807 777.811 C 195.921 778.447 194.03 778.764 192.134 778.764 C 190.113 778.764 188.144 778.4 186.227 777.67 C 184.31 776.941 182.507 775.733 180.82 774.045 C 180.59 779.275 180.361 784.677 180.132 790.251 C 179.903 795.824 179.778 801.643 179.757 807.707 L 173.193 808.457 L 172.537 808.425 C 172.85 804.529 173.141 800.44 173.412 796.158 C 173.683 791.876 173.933 787.578 174.162 783.265 C 174.391 778.952 174.6 774.706 174.787 770.529 C 174.975 766.351 175.131 762.428 175.256 758.761 C 175.381 755.094 175.48 751.765 175.553 748.775 C 175.626 745.785 175.663 743.31 175.663 741.352 C 175.663 740.56 175.621 739.867 175.537 739.273 C 175.454 738.679 175.293 738.185 175.053 737.789 C 174.813 737.393 174.464 737.096 174.006 736.898 C 173.548 736.7 172.943 736.601 172.193 736.601 C 171.422 736.601 170.485 736.684 169.38 736.851 C 168.276 737.018 166.942 737.299 165.38 737.695 L 164.911 735.382 Z M 181.101 770.638 C 182.872 772.138 184.638 773.243 186.399 773.951 C 188.159 774.659 189.925 775.014 191.696 775.014 C 194.03 775.014 196.182 774.519 198.151 773.529 C 200.12 772.539 201.818 771.065 203.245 769.107 C 204.673 767.148 205.787 764.726 206.59 761.84 C 207.392 758.954 207.793 755.604 207.793 751.791 C 207.793 750.374 207.683 748.916 207.465 747.415 C 207.246 745.915 206.902 744.556 206.433 743.337 C 205.964 742.118 205.35 741.117 204.589 740.336 C 203.829 739.555 202.907 739.164 201.823 739.164 C 200.552 739.164 199.291 739.492 198.041 740.148 C 196.791 740.805 195.577 741.69 194.4 742.805 C 193.223 743.92 192.092 745.228 191.009 746.728 C 189.925 748.228 188.904 749.817 187.946 751.494 C 186.987 753.172 186.112 754.901 185.32 756.683 C 184.529 758.464 183.836 760.199 183.242 761.887 C 182.648 763.574 182.169 765.168 181.804 766.669 C 181.44 768.169 181.205 769.492 181.101 770.638 Z"/>
     <path fill="#000000" id="imagebot_142" d="M 217.92 735.382 C 220.253 734.674 222.243 734.101 223.889 733.663 C 225.535 733.226 226.916 732.882 228.031 732.632 C 229.145 732.382 230.021 732.21 230.656 732.116 C 231.292 732.022 231.766 731.975 232.078 731.975 C 232.599 731.975 233.089 732.053 233.547 732.21 C 234.006 732.366 234.407 732.632 234.751 733.007 C 235.094 733.382 235.36 733.887 235.548 734.523 C 235.735 735.158 235.829 735.945 235.829 736.882 C 235.829 737.195 235.813 737.81 235.782 738.726 C 235.751 739.643 235.693 740.909 235.61 742.524 C 235.527 744.139 235.417 746.118 235.282 748.462 C 235.146 750.807 234.975 753.562 234.766 756.729 L 235.141 756.761 C 236.766 752.718 238.522 749.14 240.408 746.024 C 242.293 742.909 244.21 740.289 246.159 738.164 C 248.107 736.038 250.05 734.429 251.988 733.335 C 253.926 732.241 255.77 731.694 257.52 731.694 C 258.937 731.694 260.187 731.96 261.271 732.491 C 262.354 733.022 263.297 733.731 264.099 734.616 C 264.901 735.502 265.573 736.523 266.115 737.679 C 266.657 738.836 267.094 740.044 267.428 741.305 C 267.761 742.566 268.001 743.842 268.147 745.134 C 268.293 746.426 268.365 747.634 268.366 748.759 C 268.365 751.822 268.053 754.687 267.428 757.354 C 266.803 760.022 265.948 762.465 264.865 764.684 C 263.781 766.903 262.5 768.888 261.021 770.638 C 259.541 772.388 257.942 773.862 256.223 775.061 C 254.504 776.259 252.701 777.175 250.816 777.811 C 248.93 778.447 247.039 778.764 245.143 778.764 C 243.122 778.764 241.153 778.4 239.236 777.67 C 237.319 776.941 235.516 775.733 233.829 774.045 C 233.599 779.275 233.37 784.677 233.141 790.251 C 232.912 795.824 232.787 801.643 232.766 807.707 L 226.202 808.457 L 225.546 808.425 C 225.858 804.529 226.15 800.44 226.421 796.158 C 226.692 791.876 226.942 787.578 227.171 783.265 C 227.4 778.952 227.609 774.706 227.796 770.529 C 227.984 766.351 228.14 762.428 228.265 758.761 C 228.39 755.094 228.489 751.765 228.562 748.775 C 228.635 745.785 228.671 743.31 228.671 741.352 C 228.671 740.56 228.63 739.867 228.546 739.273 C 228.463 738.679 228.302 738.185 228.062 737.789 C 227.822 737.393 227.473 737.096 227.015 736.898 C 226.556 736.7 225.952 736.601 225.202 736.601 C 224.431 736.601 223.493 736.684 222.389 736.851 C 221.285 737.018 219.951 737.299 218.388 737.695 L 217.92 735.382 Z M 234.11 770.638 C 235.881 772.138 237.647 773.243 239.408 773.951 C 241.168 774.659 242.934 775.014 244.705 775.014 C 247.039 775.014 249.19 774.519 251.16 773.529 C 253.129 772.539 254.827 771.065 256.254 769.107 C 257.681 767.148 258.796 764.726 259.598 761.84 C 260.401 758.954 260.802 755.604 260.802 751.791 C 260.802 750.374 260.692 748.916 260.474 747.415 C 260.255 745.915 259.911 744.556 259.442 743.337 C 258.973 742.118 258.359 741.117 257.598 740.336 C 256.838 739.555 255.916 739.164 254.832 739.164 C 253.561 739.164 252.3 739.492 251.05 740.148 C 249.8 740.805 248.586 741.69 247.409 742.805 C 246.232 743.92 245.101 745.228 244.018 746.728 C 242.934 748.228 241.913 749.817 240.955 751.494 C 239.996 753.172 239.121 754.901 238.329 756.683 C 237.537 758.464 236.845 760.199 236.251 761.887 C 235.657 763.574 235.178 765.168 234.813 766.669 C 234.448 768.169 234.214 769.492 234.11 770.638 Z"/>
     <path fill="#000000" id="imagebot_141" d="M 289.807 777.358 C 289.265 775.378 288.687 773.305 288.072 771.138 C 287.457 768.971 286.832 766.794 286.197 764.606 C 285.561 762.418 284.926 760.261 284.29 758.136 C 283.655 756.011 283.04 753.989 282.446 752.072 C 281.852 750.155 281.29 748.379 280.758 746.743 C 280.227 745.108 279.753 743.696 279.336 742.508 C 278.899 741.279 278.477 740.274 278.07 739.492 C 277.664 738.711 277.242 738.101 276.804 737.664 C 276.367 737.226 275.908 736.924 275.429 736.757 C 274.95 736.591 274.419 736.507 273.835 736.507 C 273.168 736.507 272.455 736.58 271.694 736.726 C 270.934 736.872 270.022 737.07 268.959 737.32 L 268.491 735.07 C 269.741 734.611 270.965 734.194 272.163 733.819 C 273.361 733.444 274.471 733.121 275.492 732.85 C 276.513 732.58 277.419 732.371 278.211 732.225 C 279.003 732.079 279.628 732.007 280.086 732.006 C 280.628 732.007 281.144 732.1 281.633 732.288 C 282.123 732.475 282.602 732.804 283.071 733.272 C 283.54 733.741 283.993 734.387 284.431 735.21 C 284.868 736.033 285.306 737.07 285.743 738.32 C 286.035 739.112 286.384 740.128 286.79 741.367 C 287.197 742.607 287.64 744.014 288.119 745.587 C 288.598 747.16 289.109 748.874 289.65 750.728 C 290.192 752.583 290.739 754.516 291.291 756.526 C 291.843 758.537 292.39 760.595 292.932 762.699 C 293.474 764.804 293.995 766.887 294.495 768.95 C 295.537 766.221 296.625 763.371 297.761 760.402 C 298.897 757.433 300.053 754.448 301.23 751.447 C 302.408 748.447 303.58 745.472 304.747 742.524 C 305.913 739.576 307.039 736.757 308.122 734.069 C 308.31 733.611 308.565 733.236 308.888 732.944 C 309.211 732.652 309.57 732.418 309.966 732.241 C 310.362 732.064 310.774 731.939 311.201 731.866 C 311.628 731.793 312.05 731.756 312.467 731.756 C 313.154 731.756 313.821 731.855 314.467 732.053 C 315.113 732.251 315.728 732.496 316.311 732.788 C 315.373 734.309 314.399 736.002 313.389 737.867 C 312.378 739.732 311.341 741.722 310.279 743.837 C 309.216 745.952 308.148 748.155 307.075 750.447 C 306.002 752.739 304.934 755.078 303.871 757.464 C 302.809 759.85 301.762 762.246 300.73 764.653 C 299.699 767.059 298.704 769.429 297.745 771.763 C 296.766 774.118 295.839 776.446 294.964 778.749 C 294.089 781.051 293.234 783.281 292.401 785.437 C 291.567 787.594 290.749 789.667 289.947 791.657 C 289.145 793.647 288.327 795.507 287.494 797.236 C 286.702 798.841 285.858 800.336 284.962 801.721 C 284.066 803.107 283.076 804.305 281.993 805.316 C 280.909 806.326 279.716 807.123 278.414 807.707 C 277.112 808.29 275.669 808.582 274.085 808.582 C 273.106 808.582 272.22 808.452 271.429 808.191 C 270.637 807.931 269.965 807.587 269.413 807.16 C 268.86 806.733 268.438 806.238 268.147 805.675 C 267.855 805.112 267.709 804.519 267.709 803.894 C 267.709 803.206 267.912 802.492 268.319 801.753 C 268.725 801.013 269.262 800.455 269.928 800.08 C 270.803 800.622 271.689 801.008 272.585 801.237 C 273.481 801.466 274.283 801.581 274.992 801.581 C 276.7 801.581 278.216 801.117 279.539 800.19 C 280.862 799.263 282.107 797.872 283.274 796.017 C 284.441 794.163 285.613 791.839 286.79 789.047 C 287.968 786.255 289.275 782.984 290.713 779.233 L 291.338 777.577 L 289.807 777.358 Z"/>
    </g>
    <g font-size="128.65544px" font-style="normal" font-weight="normal" fill="#db7093" font-family="Gabriola" id="imagebot_128" transform="scale(0.8382997,1.1928908)">
     <path fill="#000000" id="imagebot_139" d="M 260.586 709.563 C 261.361 712.013 262.209 714.96 263.13 718.404 C 264.052 721.849 265.041 725.911 266.098 730.591 C 267.156 735.272 268.276 740.627 269.459 746.658 C 270.642 752.688 271.883 759.515 273.181 767.137 L 273.37 767.137 C 275.317 763.368 277.218 759.62 279.071 755.892 C 280.924 752.165 282.667 748.537 284.301 745.009 C 285.934 741.48 287.431 738.088 288.792 734.832 C 290.153 731.576 291.326 728.524 292.31 725.676 C 293.294 722.828 294.059 720.226 294.603 717.87 C 295.147 715.515 295.42 713.468 295.42 711.73 C 295.42 707.312 293.964 703.846 291.054 701.333 L 291.305 700.768 C 291.703 700.705 292.111 700.653 292.53 700.611 C 292.949 700.569 293.378 700.548 293.818 700.548 C 294.886 700.548 295.938 700.679 296.975 700.94 C 298.011 701.202 298.938 701.637 299.754 702.244 C 300.571 702.851 301.236 703.668 301.749 704.694 C 302.262 705.72 302.518 706.997 302.518 708.526 C 302.518 709.887 302.194 711.761 301.545 714.148 C 300.895 716.536 299.964 719.331 298.749 722.535 C 297.535 725.739 296.053 729.309 294.305 733.246 C 292.556 737.182 290.593 741.386 288.415 745.857 C 286.237 750.328 283.856 755.018 281.27 759.928 C 278.683 764.839 275.945 769.87 273.056 775.021 L 267.905 775.429 L 267.245 775.335 C 263.999 758.73 261.235 745.229 258.953 734.832 C 256.67 724.435 254.702 717.07 253.048 712.735 C 252.629 711.625 252.2 710.672 251.76 709.877 C 251.32 709.081 250.817 708.432 250.252 707.929 C 249.687 707.427 249.022 707.06 248.258 706.83 C 247.493 706.6 246.567 706.484 245.478 706.484 C 244.787 706.484 244.022 706.532 243.185 706.626 C 242.347 706.72 241.394 706.851 240.327 707.018 L 239.981 704.223 C 243.227 703.406 245.938 702.778 248.116 702.338 C 250.294 701.899 252.126 701.679 253.613 701.679 C 254.681 701.679 255.56 701.831 256.251 702.134 C 256.942 702.438 257.534 702.909 258.026 703.548 C 258.518 704.186 258.958 705.003 259.345 705.997 C 259.733 706.992 260.146 708.181 260.586 709.563 L 260.586 709.563 Z"/>
     <path fill="#000000" id="imagebot_138" d="M 332.829 741.821 C 332.829 740.166 332.557 738.732 332.012 737.517 C 331.468 736.303 330.756 735.308 329.876 734.534 C 328.997 733.759 328.002 733.183 326.893 732.806 C 325.783 732.429 324.673 732.241 323.563 732.241 C 322.076 732.241 320.82 732.398 319.794 732.712 C 318.768 733.026 317.935 733.455 317.297 734 C 316.658 734.544 316.197 735.188 315.915 735.931 C 315.632 736.675 315.491 737.476 315.491 738.334 C 315.491 739.339 315.674 740.35 316.04 741.365 C 316.407 742.381 316.946 743.37 317.658 744.333 L 317.532 744.679 C 316.339 745.265 315.135 745.558 313.92 745.558 C 313.208 745.558 312.543 745.448 311.926 745.229 C 311.308 745.009 310.774 744.689 310.324 744.271 C 309.874 743.852 309.518 743.339 309.256 742.732 C 308.994 742.124 308.863 741.444 308.863 740.69 C 308.863 739.454 309.162 738.292 309.758 737.203 C 310.355 736.115 311.146 735.12 312.13 734.219 C 313.114 733.319 314.255 732.513 315.554 731.801 C 316.852 731.089 318.192 730.487 319.574 729.995 C 320.956 729.503 322.343 729.126 323.736 728.864 C 325.128 728.602 326.421 728.471 327.615 728.471 C 329.814 728.471 331.693 728.765 333.253 729.351 C 334.813 729.937 336.08 730.791 337.054 731.911 C 338.027 733.031 338.739 734.387 339.19 735.978 C 339.64 737.57 339.865 739.371 339.865 741.381 C 339.865 742.763 339.807 744.281 339.692 745.935 C 339.577 747.59 339.446 749.322 339.299 751.134 C 339.153 752.945 339.022 754.814 338.907 756.74 C 338.792 758.667 338.734 760.583 338.734 762.488 C 338.734 765.504 339.294 767.771 340.415 769.289 C 341.535 770.807 343.006 771.566 344.828 771.566 C 346.44 771.566 348.241 770.969 350.23 769.776 L 351.141 771.126 C 349.738 772.529 348.209 773.597 346.555 774.33 C 344.901 775.063 343.163 775.429 341.341 775.429 C 339.98 775.429 338.724 775.199 337.572 774.738 C 336.42 774.278 335.426 773.592 334.588 772.681 C 333.75 771.77 333.101 770.624 332.641 769.242 C 332.18 767.86 331.95 766.258 331.95 764.436 C 331.95 763.891 331.965 763.347 331.997 762.802 C 332.028 762.258 332.096 761.682 332.201 761.075 L 332.012 761.075 C 331.112 762.876 330.07 764.65 328.887 766.399 C 327.704 768.147 326.406 769.707 324.992 771.079 C 323.579 772.451 322.071 773.56 320.469 774.409 C 318.867 775.257 317.187 775.681 315.428 775.681 C 313.983 775.681 312.664 775.429 311.47 774.927 C 310.277 774.424 309.256 773.733 308.408 772.854 C 307.56 771.974 306.9 770.932 306.429 769.728 C 305.958 768.524 305.722 767.21 305.722 765.786 C 305.722 763.944 306.062 762.269 306.743 760.761 C 307.424 759.253 308.366 757.903 309.57 756.709 C 310.774 755.515 312.214 754.484 313.889 753.615 C 315.564 752.746 317.386 752.024 319.354 751.448 C 321.322 750.872 323.406 750.443 325.605 750.16 C 327.803 749.877 330.044 749.736 332.326 749.736 C 332.473 748.417 332.593 747.139 332.688 745.904 C 332.782 744.669 332.829 743.307 332.829 741.821 L 332.829 741.821 Z M 313.543 763.399 C 313.543 764.216 313.632 764.996 313.81 765.739 C 313.988 766.483 314.271 767.137 314.658 767.702 C 315.046 768.268 315.538 768.713 316.135 769.037 C 316.731 769.362 317.449 769.524 318.286 769.524 C 319.228 769.524 320.202 769.304 321.207 768.865 C 322.212 768.425 323.202 767.818 324.176 767.043 C 325.149 766.268 326.081 765.341 326.971 764.263 C 327.861 763.185 328.662 762.007 329.374 760.729 C 330.086 759.452 330.677 758.107 331.149 756.693 C 331.62 755.28 331.929 753.83 332.075 752.343 C 330.526 752.385 328.987 752.484 327.458 752.641 C 325.929 752.798 324.479 753.044 323.108 753.38 C 321.736 753.715 320.464 754.154 319.291 754.699 C 318.119 755.243 317.108 755.919 316.26 756.725 C 315.412 757.531 314.747 758.484 314.266 759.583 C 313.784 760.682 313.543 761.954 313.543 763.399 Z"/>
     <path fill="#000000" id="imagebot_137" d="M 367.914 689.806 C 367.495 693.365 367.082 697.014 366.673 700.752 C 366.265 704.49 365.878 708.27 365.511 712.091 C 365.145 715.913 364.804 719.75 364.49 723.603 C 364.176 727.456 363.904 731.251 363.674 734.989 C 363.443 738.727 363.265 742.396 363.14 745.998 C 363.014 749.6 362.951 753.055 362.951 756.363 C 362.951 758.437 362.977 760.216 363.03 761.703 C 363.082 763.19 363.166 764.446 363.281 765.472 C 363.396 766.498 363.553 767.326 363.752 767.954 C 363.951 768.582 364.197 769.064 364.49 769.399 C 364.783 769.734 365.129 769.959 365.527 770.074 C 365.925 770.189 366.396 770.247 366.94 770.247 C 367.945 770.247 369.029 770.095 370.191 769.791 C 371.353 769.488 372.531 769.064 373.725 768.519 L 374.322 770.152 C 373.568 770.76 372.62 771.377 371.479 772.006 C 370.338 772.634 369.139 773.21 367.883 773.733 C 366.626 774.257 365.396 774.681 364.192 775.005 C 362.988 775.33 361.946 775.492 361.067 775.492 C 359.936 775.492 359.041 775.204 358.381 774.628 C 357.721 774.052 357.219 773.115 356.873 771.817 C 356.528 770.519 356.308 768.828 356.214 766.744 C 356.12 764.661 356.072 762.122 356.072 759.128 C 356.072 758.039 356.104 756.484 356.167 754.463 C 356.229 752.442 356.318 750.092 356.434 747.412 C 356.549 744.731 356.68 741.8 356.826 738.617 C 356.973 735.434 357.13 732.141 357.297 728.738 C 357.465 725.336 357.643 721.901 357.831 718.436 C 358.02 714.97 358.208 711.62 358.397 708.385 C 358.585 705.149 358.763 702.097 358.931 699.229 C 359.098 696.36 359.255 693.826 359.402 691.627 C 359.423 691.125 359.569 690.69 359.842 690.324 C 360.114 689.958 360.465 689.664 360.894 689.444 C 361.323 689.225 361.805 689.062 362.339 688.958 C 362.873 688.853 363.412 688.801 363.956 688.8 C 365.213 688.801 366.532 689.136 367.914 689.806 L 367.914 689.806 Z"/>
     <path fill="#000000" id="imagebot_136" d="M 409.281 764.373 C 409.407 764.436 409.569 764.525 409.768 764.64 C 409.967 764.755 410.15 764.881 410.318 765.017 C 410.485 765.153 410.632 765.3 410.757 765.457 C 410.883 765.614 410.946 765.766 410.946 765.912 C 410.946 765.996 410.914 766.08 410.852 766.163 C 409.679 767.797 408.417 769.215 407.067 770.419 C 405.716 771.623 404.313 772.629 402.858 773.435 C 401.402 774.241 399.921 774.838 398.413 775.225 C 396.905 775.613 395.419 775.806 393.953 775.806 C 391.44 775.806 389.137 775.293 387.043 774.267 C 384.949 773.241 383.148 771.838 381.64 770.058 C 380.133 768.278 378.955 766.19 378.107 763.792 C 377.259 761.394 376.835 758.824 376.835 756.081 C 376.835 753.84 377.081 751.6 377.573 749.359 C 378.065 747.118 378.777 744.983 379.709 742.951 C 380.64 740.92 381.776 739.03 383.117 737.282 C 384.457 735.533 385.98 734.015 387.687 732.727 C 389.393 731.44 391.267 730.429 393.309 729.696 C 395.351 728.963 397.544 728.597 399.889 728.597 C 401.439 728.597 402.915 728.806 404.318 729.225 C 405.721 729.644 406.951 730.246 408.009 731.031 C 409.066 731.817 409.909 732.785 410.537 733.937 C 411.166 735.088 411.48 736.397 411.48 737.863 C 411.48 739.999 410.783 741.862 409.391 743.454 C 407.998 745.045 406.077 746.396 403.627 747.506 C 401.177 748.616 398.293 749.511 394.974 750.191 C 391.655 750.872 388.069 751.38 384.216 751.715 L 384.216 752.249 C 384.216 754.929 384.556 757.379 385.237 759.599 C 385.917 761.818 386.854 763.719 388.048 765.3 C 389.241 766.881 390.644 768.111 392.257 768.99 C 393.869 769.87 395.607 770.31 397.471 770.31 C 399.355 770.31 401.287 769.844 403.266 768.912 C 405.245 767.98 407.25 766.467 409.281 764.373 L 409.281 764.373 Z M 403.376 739.151 C 403.376 738.188 403.214 737.287 402.889 736.449 C 402.565 735.612 402.114 734.884 401.538 734.266 C 400.963 733.649 400.277 733.162 399.481 732.806 C 398.685 732.45 397.827 732.272 396.905 732.272 C 395.544 732.272 394.309 732.513 393.199 732.994 C 392.089 733.476 391.095 734.13 390.215 734.958 C 389.336 735.785 388.561 736.748 387.891 737.847 C 387.221 738.947 386.65 740.114 386.179 741.349 C 385.708 742.585 385.326 743.852 385.033 745.15 C 384.739 746.448 384.53 747.715 384.404 748.951 C 387.378 748.741 390.042 748.38 392.398 747.867 C 394.754 747.354 396.743 746.694 398.366 745.888 C 399.989 745.082 401.23 744.119 402.088 742.998 C 402.947 741.878 403.376 740.596 403.376 739.151 Z"/>
     <path fill="#000000" id="imagebot_135" d="M423.03864,737.98859C423.03864,737.13007 422.97583,736.40765 422.85019,735.82129C422.72452,735.23505 422.53082,734.7691 422.2691,734.42358C422.00732,734.07806 421.67752,733.83203 421.27969,733.68542C420.88181,733.53888 420.41068,733.46558 419.86624,733.46558C419.11237,733.46558 418.21198,733.57031 417.16495,733.77966C416.11795,733.98907 414.92438,734.27179 413.58423,734.62775L413.11307,732.36621C414.59982,731.84271 416.02896,731.36633 417.40054,730.93707C418.77209,730.50781 420.03375,730.13611 421.18546,729.82196C422.33713,729.50793 423.35272,729.26709 424.23221,729.09955C425.11169,728.93207 425.8027,728.84833 426.30527,728.84827C427.51978,728.84833 428.46732,729.20953 429.14789,729.93195C429.82843,730.65442 430.1687,731.89508 430.1687,733.65399C430.1687,733.86346 430.14771,734.35028 430.1059,735.11456C430.064,735.87891 430.00641,736.84741 429.93317,738.02002C429.85986,739.19269 429.77087,740.53809 429.66617,742.05621C429.56146,743.57434 429.44104,745.19202 429.30496,746.90906C429.16882,748.62616 429.01703,750.40082 428.84952,752.23303C428.68198,754.06531 428.504,755.89233 428.31555,757.71411L428.504,757.74548C430.09543,752.34302 431.80203,747.78333 433.62384,744.06641C435.44559,740.34961 437.29877,737.33423 439.18341,735.02032C441.06799,732.70648 442.94211,731.03656 444.80579,730.01044C446.66943,728.98444 448.44934,728.47137 450.14551,728.47137C451.31812,728.47137 452.44888,728.69128 453.53778,729.13098C454.62662,729.57074 455.59509,730.27222 456.44321,731.23541C457.29123,732.19873 457.96655,733.43939 458.46915,734.95752C458.97168,736.47571 459.22296,738.31317 459.22299,740.46997C459.22296,741.09821 459.18631,741.94104 459.11307,742.99847C459.03976,744.05597 458.95074,745.23389 458.84607,746.5321C458.74133,747.83044 458.62094,749.20721 458.48486,750.66254C458.34872,752.11786 458.2283,753.54706 458.12366,754.95001C458.01889,756.35297 457.9299,757.68793 457.85666,758.95477C457.78336,760.22168 457.74667,761.32623 457.74673,762.26855C457.74667,763.90186 457.81473,765.23157 457.9509,766.25763C458.08698,767.28369 458.31207,768.09509 458.62622,768.69189C458.94025,769.2887 459.35907,769.69702 459.8826,769.91687C460.40607,770.13672 461.04474,770.2467 461.79861,770.24664C462.88745,770.2467 464.01822,770.09485 465.19089,769.79126C466.36349,769.48761 467.5466,769.0636 468.74023,768.5191L469.33704,770.15247C468.58313,770.7597 467.63037,771.37744 466.4787,772.00562C465.32697,772.63385 464.11768,773.20972 462.85086,773.73322C461.58395,774.25671 460.3223,774.68073 459.06595,775.00531C457.80951,775.32983 456.69968,775.49213 455.73648,775.49213C454.60568,775.49213 453.71573,775.18854 453.06665,774.58124C452.41745,773.974 451.9306,773.14685 451.60608,772.09985C451.28146,771.05286 451.07205,769.82788 450.97787,768.42487C450.88358,767.02191 450.83649,765.51422 450.83652,763.90186C450.83649,761.93347 450.90451,759.90753 451.04068,757.82404C451.17676,755.74048 451.32858,753.75641 451.49615,751.87183C451.66364,749.98724 451.81543,748.27539 451.95157,746.73627C452.08765,745.1972 452.1557,743.96698 452.15576,743.04559C452.1557,740.59564 451.69504,738.78955 450.77371,737.62738C449.85229,736.46521 448.62732,735.88416 447.09872,735.88409C445.88419,735.88416 444.60684,736.39716 443.26672,737.42322C441.92651,738.44928 440.59161,739.85754 439.26193,741.64783C437.93222,743.43823 436.65488,745.55316 435.4299,747.99268C434.2049,750.43219 433.10031,753.07068 432.11615,755.90802C431.13196,758.74536 430.31528,761.71362 429.66617,764.81274C429.01703,767.91187 428.6087,771.01099 428.44119,774.11011L421.8765,774.92676L421.37393,774.89539C421.54144,772.90607 421.69849,770.73877 421.84509,768.39349C421.99164,766.04822 422.12775,763.66632 422.25342,761.24768C422.37903,758.82916 422.48898,756.43152 422.58322,754.05481C422.6774,751.67816 422.7612,749.4585 422.8345,747.39587C422.90778,745.33331 422.96011,743.48535 422.99155,741.85205C423.02295,740.21875 423.03864,738.93091 423.03864,737.98859z"/>
     <path fill="#000000" id="imagebot_134" d="M 488.623 706.202 C 487.743 710.18 487.005 714.29 486.408 718.53 C 485.812 722.771 485.304 726.953 484.885 731.078 C 485.869 731.12 486.827 731.152 487.759 731.173 C 488.691 731.194 489.56 731.214 490.366 731.235 C 491.172 731.256 491.905 731.267 492.565 731.267 C 493.224 731.267 493.774 731.267 494.214 731.267 C 496.119 731.267 497.679 731.152 498.894 730.921 C 498.999 731.277 499.082 731.602 499.145 731.895 C 499.208 732.188 499.239 732.46 499.239 732.712 C 499.239 733.633 498.857 734.23 498.093 734.502 C 497.329 734.774 496.224 734.91 494.779 734.91 C 493.397 734.91 491.853 734.827 490.146 734.659 C 488.44 734.492 486.571 734.335 484.539 734.188 C 484.309 736.429 484.115 738.612 483.958 740.737 C 483.801 742.862 483.676 744.867 483.581 746.752 C 483.487 748.637 483.419 750.385 483.377 751.997 C 483.335 753.61 483.314 755.013 483.314 756.206 C 483.314 758.447 483.43 760.447 483.66 762.206 C 483.89 763.965 484.299 765.457 484.885 766.682 C 485.471 767.907 486.277 768.844 487.304 769.493 C 488.33 770.142 489.628 770.466 491.198 770.466 C 492.329 770.466 493.591 770.268 494.983 769.87 C 496.376 769.472 497.962 768.833 499.742 767.954 C 500.307 768.519 500.632 769.21 500.716 770.027 C 499.417 770.885 498.109 771.665 496.789 772.367 C 495.47 773.068 494.172 773.67 492.895 774.173 C 491.617 774.675 490.382 775.063 489.188 775.335 C 487.995 775.607 486.864 775.743 485.796 775.743 C 484.393 775.743 483.11 775.487 481.948 774.974 C 480.786 774.461 479.781 773.55 478.933 772.241 C 478.085 770.932 477.425 769.168 476.954 766.949 C 476.483 764.729 476.247 761.923 476.247 758.531 C 476.247 756.625 476.279 754.662 476.341 752.641 C 476.404 750.621 476.488 748.574 476.593 746.501 C 476.697 744.428 476.833 742.355 477.001 740.281 C 477.169 738.208 477.357 736.167 477.566 734.156 C 475.912 734.177 474.378 734.246 472.965 734.361 C 471.551 734.476 470.342 734.659 469.337 734.91 C 469.274 734.785 469.243 734.638 469.243 734.471 C 469.243 734.031 469.457 733.617 469.887 733.23 C 470.316 732.843 470.913 732.492 471.677 732.178 C 472.441 731.864 473.357 731.602 474.425 731.392 C 475.493 731.183 476.666 731.036 477.943 730.953 C 478.425 726.576 478.938 722.441 479.482 718.546 C 480.027 714.651 480.571 711.175 481.116 708.118 C 481.22 707.573 481.414 707.123 481.697 706.767 C 481.98 706.411 482.309 706.128 482.686 705.919 C 483.063 705.71 483.471 705.563 483.911 705.479 C 484.351 705.395 484.78 705.354 485.199 705.354 C 485.89 705.354 486.513 705.427 487.068 705.573 C 487.623 705.72 488.141 705.929 488.623 706.202 L 488.623 706.202 Z"/>
     <path fill="#000000" id="imagebot_133" d="M513.2168,715.71887C512.48389,715.71893 511.83475,715.56714 511.26938,715.26343C510.70398,714.95984 510.22238,714.56201 509.82452,714.06982C509.42664,713.57782 509.12302,713.01245 508.91364,712.37372C508.70422,711.73511 508.59952,711.08075 508.59952,710.41058C508.59952,709.46832 508.75656,708.63599 509.07068,707.91345C509.38477,707.1911 509.79309,706.58386 510.29568,706.09167C510.79822,705.59967 511.35312,705.23322 511.96039,704.99237C512.56763,704.75159 513.16443,704.63123 513.75079,704.6311C514.46271,704.63123 515.10138,704.76208 515.66681,705.02374C516.23218,705.28558 516.71899,705.64679 517.12738,706.10742C517.53564,706.56818 517.84973,707.09686 518.06964,707.6936C518.28949,708.29047 518.39941,708.93439 518.39948,709.62531C518.39941,710.35828 518.2738,711.08594 518.02252,711.80835C517.77124,712.53082 517.42047,713.18518 516.97028,713.77142C516.52008,714.35785 515.97565,714.82898 515.33698,715.18488C514.6983,715.54095 513.99158,715.71893 513.2168,715.71887zM515.94946,729.9162C515.59351,732.30341 515.28986,734.6958 515.03857,737.09338C514.78729,739.49109 514.58313,741.81018 514.42609,744.05072C514.26904,746.29132 514.15387,748.4115 514.08057,750.41125C514.00726,752.41101 513.97064,754.2171 513.97064,755.82947C513.97064,758.00726 514.00201,759.87616 514.06482,761.43616C514.12762,762.99622 514.23236,764.31018 514.37897,765.37811C514.52551,766.44604 514.70874,767.29938 514.92865,767.93805C515.1485,768.57672 515.42072,769.06879 515.7453,769.41431C516.06982,769.75983 516.44678,769.98492 516.87604,770.0896C517.3053,770.19434 517.79218,770.24664 518.33661,770.24664C519.34174,770.24664 520.42535,770.09485 521.58752,769.7912C522.74969,769.48761 523.92755,769.06354 525.12115,768.5191L525.71796,770.1524C524.96411,770.7597 524.01654,771.37744 522.87537,772.00562C521.73407,772.63385 520.53528,773.20966 519.27893,773.73315C518.02246,774.25665 516.79224,774.68073 515.58826,775.00531C514.38416,775.32983 513.34241,775.49213 512.46295,775.49213C511.87659,775.49213 511.34262,775.44507 510.86102,775.35077C510.37939,775.25659 509.94489,775.021 509.5575,774.64404C509.1701,774.26715 508.82458,773.71222 508.52097,772.97937C508.21735,772.24646 507.96606,771.25177 507.76715,769.99536C507.56821,768.73901 507.41638,767.16852 507.31168,765.28387C507.20697,763.39929 507.15463,761.11682 507.15463,758.43652C507.15463,756.86603 507.17035,755.09137 507.20175,753.11249C507.23315,751.13367 507.28024,749.0083 507.34308,746.73627C507.40588,744.46429 507.48965,742.06665 507.59436,739.5434C507.69907,737.02014 507.83517,734.41833 508.00269,731.73798C508.04459,731.15167 508.20163,730.67529 508.47385,730.30884C508.74606,729.94244 509.08109,729.65973 509.47897,729.46075C509.87683,729.26184 510.30087,729.12573 510.75107,729.05243C511.20129,728.97925 511.61484,728.9425 511.99176,728.9425C513.39471,728.9425 514.71399,729.26709 515.94946,729.9162z"/>
     <path fill="#000000" id="imagebot_132" d="M534.10443,737.98859C534.10443,737.13007 534.04163,736.40765 533.91595,735.82129C533.79034,735.23505 533.59662,734.7691 533.3349,734.42358C533.07312,734.07806 532.74335,733.83203 532.34546,733.68542C531.94757,733.53888 531.47644,733.46558 530.93201,733.46558C530.17816,733.46558 529.27777,733.57031 528.23077,733.77966C527.18378,733.98907 525.99017,734.27179 524.65002,734.62775L524.17889,732.36621C525.66559,731.84271 527.09479,731.36633 528.46637,730.93707C529.83789,730.50781 531.09955,730.13611 532.25122,729.82196C533.40295,729.50793 534.41852,729.26709 535.29803,729.09955C536.17749,728.93207 536.86853,728.84833 537.37109,728.84827C538.58557,728.84833 539.53314,729.20953 540.21368,729.93195C540.89423,730.65442 541.2345,731.89508 541.2345,733.65399C541.2345,733.86346 541.2135,734.35028 541.17169,735.11456C541.12982,735.87891 541.0722,736.84741 540.99896,738.02002C540.92566,739.19269 540.83667,740.53809 540.73199,742.05621C540.62726,743.57434 540.50684,745.19202 540.37073,746.90906C540.23462,748.62616 540.08282,750.40082 539.91528,752.23303C539.74774,754.06531 539.56976,755.89233 539.38135,757.71411L539.56982,757.74548C541.16119,752.34302 542.86786,747.78333 544.68964,744.06641C546.51141,740.34961 548.36456,737.33423 550.24921,735.02032C552.13379,732.70648 554.00793,731.03656 555.87158,730.01044C557.73523,728.98444 559.51514,728.47137 561.2113,728.47137C562.38391,728.47137 563.51465,728.69128 564.60358,729.13098C565.69244,729.57074 566.66089,730.27222 567.50903,731.23541C568.35706,732.19873 569.03235,733.43939 569.53497,734.95752C570.03748,736.47571 570.28876,738.31317 570.28882,740.46997C570.28876,741.09821 570.25208,741.94104 570.17883,742.99847C570.10553,744.05597 570.01654,745.23389 569.91187,746.5321C569.80713,747.83044 569.68671,749.20721 569.55066,750.66254C569.41449,752.11786 569.29413,753.54706 569.18945,754.95001C569.08472,756.35297 568.99573,757.68793 568.92249,758.95477C568.84918,760.22168 568.8125,761.32623 568.8125,762.26855C568.8125,763.90186 568.88055,765.23157 569.01666,766.25763C569.15277,767.28369 569.37787,768.09509 569.69202,768.69189C570.00604,769.2887 570.42487,769.69702 570.94843,769.91687C571.47186,770.13672 572.11053,770.2467 572.86444,770.24664C573.95325,770.2467 575.08398,770.09485 576.25671,769.79126C577.42926,769.48761 578.61243,769.0636 579.80603,768.5191L580.40283,770.15247C579.64893,770.7597 578.69617,771.37744 577.54449,772.00562C576.39276,772.63385 575.18347,773.20972 573.91663,773.73322C572.64972,774.25671 571.38812,774.68073 570.13177,775.00531C568.87531,775.32983 567.7655,775.49213 566.80231,775.49213C565.67151,775.49213 564.78156,775.18854 564.13245,774.58124C563.48328,773.974 562.9964,773.14685 562.67188,772.09985C562.34729,771.05286 562.13788,769.82788 562.04364,768.42487C561.94934,767.02191 561.90228,765.51422 561.90234,763.90186C561.90228,761.93347 561.97034,759.90753 562.10651,757.82404C562.24255,755.74048 562.39435,753.75641 562.56195,751.87183C562.72943,749.98724 562.88123,748.27539 563.0174,746.73627C563.15344,745.1972 563.2215,743.96698 563.22156,743.04559C563.2215,740.59564 562.7608,738.78955 561.83948,737.62738C560.91809,736.46521 559.69312,735.88416 558.16455,735.88409C556.94995,735.88416 555.67267,736.39716 554.33252,737.42322C552.99231,738.44928 551.65741,739.85754 550.32776,741.64783C548.99799,743.43823 547.72064,745.55316 546.49573,747.99268C545.27069,750.43219 544.16614,753.07068 543.18195,755.90802C542.19775,758.74536 541.3811,761.71362 540.73199,764.81274C540.08282,767.91187 539.6745,771.01099 539.50696,774.11011L532.94226,774.92676L532.4397,774.89539C532.60724,772.90607 532.76428,770.73877 532.91089,768.39349C533.05743,766.04822 533.19354,763.66632 533.31921,761.24768C533.44482,758.82916 533.55475,756.43152 533.64899,754.05481C533.74323,751.67816 533.82697,749.4585 533.90027,747.39587C533.97357,745.33331 534.02594,743.48535 534.05731,741.85205C534.08875,740.21875 534.10443,738.93091 534.10443,737.98859z"/>
     <path fill="#000000" id="imagebot_131" d="M615.33075,764.37299C615.45636,764.43579 615.61865,764.52484 615.81763,764.63995C616.01648,764.75519 616.19971,764.8808 616.36731,765.01691C616.53479,765.15302 616.68134,765.29962 616.80701,765.45667C616.93262,765.61371 616.99542,765.7655 616.99548,765.91211C616.99542,765.99585 616.96405,766.07959 616.90131,766.16333C615.72858,767.79669 614.46698,769.21539 613.11639,770.41943C611.76569,771.62347 610.36273,772.6286 608.90741,773.43475C607.45209,774.24097 605.97058,774.83777 604.46289,775.22516C602.9552,775.61255 601.46844,775.80621 600.00269,775.80621C597.48987,775.80621 595.18646,775.29321 593.09247,774.26715C590.99847,773.24109 589.19763,771.83813 587.68994,770.05823C586.18225,768.27832 585.00439,766.18958 584.15631,763.79193C583.30829,761.39429 582.88422,758.82391 582.88422,756.08075C582.88422,753.84021 583.13025,751.59961 583.62238,749.35901C584.11444,747.11847 584.82642,744.98254 585.75824,742.95135C586.69006,740.92023 587.82605,739.0304 589.16626,737.28186C590.50641,735.53339 592.02979,734.01526 593.73639,732.72742C595.44299,731.43964 597.31714,730.42926 599.35876,729.69635C601.40039,728.96344 603.59387,728.59705 605.93921,728.59698C607.48871,728.59705 608.96497,728.8064 610.36798,729.22516C611.77094,729.64404 613.00116,730.24603 614.05865,731.03125C615.11609,731.81653 615.95892,732.78503 616.58716,733.93671C617.21533,735.08844 617.52942,736.39716 617.52948,737.86292C617.52942,739.99884 616.83319,741.86249 615.44073,743.45392C614.04816,745.04541 612.12689,746.396 609.67694,747.5058C607.22699,748.61566 604.34247,749.51086 601.0235,750.19135C597.70453,750.87195 594.11853,751.37976 590.26556,751.71472L590.26556,752.24872C590.26556,754.92908 590.60583,757.37903 591.28644,759.59869C591.96692,761.8183 592.90399,763.71863 594.0976,765.29956C595.2912,766.88055 596.69415,768.11078 598.30658,768.99023C599.91888,769.86975 601.65692,770.30951 603.52063,770.30951C605.40515,770.30951 607.33691,769.84357 609.31573,768.91174C611.29456,767.97992 613.29956,766.46698 615.33075,764.37299zM609.42566,739.15076C609.42566,738.18756 609.26337,737.28711 608.93878,736.44946C608.6142,735.61194 608.164,734.88428 607.5882,734.26648C607.01233,733.6488 606.32654,733.16193 605.53082,732.80591C604.73505,732.44995 603.87653,732.27197 602.9552,732.27197C601.59406,732.27197 600.35864,732.51282 599.24884,732.99438C598.13898,733.47601 597.14435,734.13043 596.26483,734.95752C595.38538,735.78467 594.6106,736.74792 593.94049,737.84723C593.27045,738.94659 592.69983,740.11401 592.2287,741.34943C591.75751,742.58496 591.37537,743.85181 591.08221,745.15009C590.78906,746.44836 590.57965,747.71521 590.45404,748.95068C593.42749,748.74127 596.0921,748.38007 598.44788,747.867C600.80359,747.354 602.79291,746.6944 604.41577,745.88818C606.03857,745.08203 607.2793,744.11877 608.13788,742.99847C608.99634,741.87823 609.42566,740.59564 609.42566,739.15076z"/>
     <path fill="#000000" id="imagebot_130" d="M 627.267 726.932 L 627.172 700.673 C 627.172 700.339 627.288 700.045 627.518 699.794 C 627.748 699.543 628.036 699.339 628.382 699.182 C 628.727 699.025 629.115 698.904 629.544 698.82 C 629.973 698.737 630.397 698.695 630.816 698.695 C 631.423 698.695 632.051 698.752 632.701 698.867 C 633.35 698.983 634.02 699.176 634.711 699.448 C 633.768 703.993 632.947 708.505 632.245 712.986 C 631.544 717.467 630.952 722.043 630.47 726.712 L 627.769 726.964 L 627.267 726.932 Z"/>
     <path fill="#000000" id="imagebot_129" d="M 646.898 762.771 C 647.044 764.363 647.468 765.734 648.17 766.886 C 648.871 768.038 649.735 768.98 650.761 769.713 C 651.787 770.446 652.923 770.99 654.169 771.346 C 655.415 771.702 656.656 771.88 657.891 771.88 C 659.043 771.88 660.153 771.723 661.221 771.409 C 662.289 771.095 663.231 770.645 664.048 770.058 C 664.864 769.472 665.519 768.75 666.011 767.891 C 666.503 767.032 666.749 766.069 666.749 765.001 C 666.749 763.891 666.487 762.918 665.964 762.08 C 665.44 761.242 664.739 760.478 663.859 759.787 C 662.98 759.096 661.959 758.458 660.797 757.871 C 659.635 757.285 658.425 756.688 657.169 756.081 C 656.059 755.557 654.944 755.029 653.824 754.495 C 652.703 753.961 651.62 753.38 650.573 752.751 C 649.526 752.123 648.547 751.443 647.636 750.71 C 646.725 749.977 645.929 749.165 645.249 748.275 C 644.568 747.385 644.034 746.391 643.647 745.291 C 643.26 744.192 643.066 742.972 643.066 741.632 C 643.066 740.187 643.317 738.858 643.82 737.643 C 644.322 736.429 645.008 735.335 645.877 734.361 C 646.746 733.387 647.751 732.534 648.892 731.801 C 650.034 731.068 651.253 730.456 652.552 729.963 C 653.85 729.471 655.185 729.105 656.556 728.864 C 657.928 728.623 659.263 728.503 660.561 728.503 C 662.236 728.503 663.823 728.686 665.32 729.052 C 666.817 729.419 668.126 729.953 669.246 730.654 C 670.366 731.356 671.256 732.209 671.916 733.214 C 672.576 734.219 672.905 735.35 672.905 736.607 C 672.905 737.088 672.822 737.612 672.654 738.177 C 672.487 738.742 672.204 739.271 671.806 739.763 C 671.408 740.255 670.885 740.669 670.235 741.004 C 669.586 741.339 668.791 741.517 667.848 741.538 C 666.969 741.538 666.047 741.402 665.084 741.13 L 664.99 740.815 C 665.283 740.145 665.493 739.528 665.618 738.962 C 665.744 738.397 665.807 737.873 665.807 737.392 C 665.786 736.429 665.54 735.617 665.069 734.958 C 664.597 734.298 664.006 733.759 663.294 733.34 C 662.582 732.921 661.791 732.618 660.922 732.429 C 660.053 732.241 659.2 732.146 658.363 732.146 C 656.876 732.146 655.546 732.345 654.373 732.743 C 653.201 733.141 652.211 733.67 651.405 734.329 C 650.599 734.989 649.981 735.738 649.552 736.575 C 649.123 737.413 648.908 738.282 648.908 739.182 C 648.908 740.334 649.212 741.365 649.819 742.276 C 650.426 743.187 651.232 744.025 652.238 744.789 C 653.243 745.553 654.4 746.27 655.708 746.94 C 657.017 747.611 658.383 748.281 659.807 748.951 C 661.399 749.705 662.98 750.485 664.55 751.291 C 666.121 752.097 667.524 753.013 668.759 754.039 C 669.995 755.065 670.995 756.243 671.759 757.573 C 672.523 758.902 672.905 760.468 672.905 762.269 C 672.905 764.425 672.429 766.341 671.476 768.017 C 670.523 769.692 669.251 771.105 667.66 772.257 C 666.068 773.409 664.241 774.283 662.179 774.88 C 660.116 775.476 657.975 775.775 655.755 775.775 C 654.646 775.775 653.499 775.691 652.316 775.524 C 651.133 775.356 649.987 775.105 648.877 774.77 C 647.767 774.435 646.715 774.021 645.72 773.529 C 644.725 773.037 643.856 772.472 643.113 771.833 C 642.37 771.194 641.783 770.482 641.354 769.697 C 640.925 768.912 640.71 768.048 640.71 767.106 C 640.71 766.289 640.883 765.598 641.228 765.033 C 641.574 764.467 642.029 764.007 642.595 763.651 C 643.16 763.295 643.794 763.028 644.495 762.85 C 645.196 762.672 645.914 762.572 646.647 762.551 L 646.898 762.771 Z"/>
    </g>
    <g font-size="125.61497px" font-style="normal" font-weight="normal" fill="#db7093" font-family="Gabriola" id="imagebot_123" transform="scale(1.0730808,0.93189628)">
     <path fill="#000000" id="imagebot_127" d="M 419.708 1017.03 C 419.688 1018.05 419.657 1019.58 419.616 1021.6 C 419.575 1023.63 419.524 1025.98 419.463 1028.67 C 419.402 1031.36 419.325 1034.29 419.233 1037.47 C 419.141 1040.65 419.044 1043.9 418.942 1047.22 C 418.839 1050.55 418.727 1053.85 418.604 1057.15 C 418.482 1060.44 418.359 1063.54 418.236 1066.47 C 418.114 1069.39 417.986 1072.04 417.853 1074.43 C 417.72 1076.81 417.592 1078.75 417.47 1080.24 C 419.494 1080.77 421.359 1081.12 423.066 1081.3 C 424.774 1081.47 426.455 1081.56 428.111 1081.56 C 431.546 1081.56 434.618 1081.13 437.327 1080.27 C 440.036 1079.41 442.418 1078.21 444.473 1076.67 C 446.527 1075.12 448.275 1073.29 449.717 1071.16 C 451.158 1069.03 452.334 1066.7 453.243 1064.17 C 454.153 1061.63 454.818 1058.93 455.237 1056.07 C 455.656 1053.21 455.866 1050.28 455.866 1047.27 C 455.866 1042.77 455.37 1038.65 454.378 1034.91 C 453.387 1031.17 451.771 1027.95 449.533 1025.25 C 447.294 1022.55 444.375 1020.45 440.777 1018.95 C 437.179 1017.45 432.783 1016.69 427.59 1016.69 C 426.302 1016.69 425.004 1016.73 423.695 1016.79 C 422.387 1016.85 421.058 1016.93 419.708 1017.03 Z M 401.216 1016.02 C 403.383 1015.61 405.611 1015.22 407.901 1014.84 C 410.191 1014.46 412.501 1014.13 414.832 1013.84 C 417.163 1013.56 419.499 1013.33 421.84 1013.15 C 424.181 1012.98 426.496 1012.89 428.786 1012.89 C 431.975 1012.89 435.068 1013.09 438.063 1013.49 C 441.058 1013.89 443.88 1014.56 446.527 1015.51 C 449.175 1016.46 451.603 1017.73 453.811 1019.32 C 456.019 1020.9 457.915 1022.87 459.5 1025.24 C 461.084 1027.6 462.316 1030.39 463.195 1033.62 C 464.074 1036.85 464.514 1040.58 464.514 1044.82 C 464.514 1048.62 464.136 1052.26 463.379 1055.75 C 462.623 1059.24 461.519 1062.48 460.067 1065.49 C 458.615 1068.49 456.842 1071.22 454.746 1073.67 C 452.65 1076.13 450.258 1078.23 447.57 1079.98 C 444.881 1081.73 441.917 1083.07 438.676 1084.03 C 435.436 1084.98 431.955 1085.45 428.234 1085.45 C 426.312 1085.45 424.36 1085.32 422.376 1085.05 C 420.393 1084.79 418.328 1084.38 416.182 1083.83 L 410.109 1084.56 L 409.557 1084.5 C 409.7 1083.19 409.854 1081.46 410.017 1079.3 C 410.181 1077.15 410.339 1074.64 410.493 1071.77 C 410.646 1068.91 410.794 1065.73 410.937 1062.22 C 411.08 1058.71 411.208 1054.94 411.321 1050.9 C 411.433 1046.87 411.52 1042.61 411.581 1038.13 C 411.643 1033.65 411.673 1029 411.673 1024.18 C 411.673 1023.2 411.632 1022.34 411.551 1021.6 C 411.469 1020.87 411.259 1020.25 410.922 1019.76 C 410.585 1019.27 410.084 1018.9 409.419 1018.66 C 408.755 1018.41 407.85 1018.29 406.705 1018.29 C 405.356 1018.29 403.628 1018.44 401.522 1018.75 L 401.216 1016.02 Z"/>
     <path fill="#000000" id="imagebot_126" d="M497.88034,1052.54492C497.88031,1050.92969 497.61453,1049.5293 497.08298,1048.34338C496.55136,1047.15759 495.85623,1046.18652 494.99756,1045.43005C494.13885,1044.67346 493.16772,1044.11133 492.08414,1043.74316C491.00052,1043.37537 489.91693,1043.19128 488.83337,1043.19116C487.38174,1043.19128 486.15503,1043.3446 485.15323,1043.65125C484.1514,1043.95801 483.33871,1044.37708 482.71515,1044.90857C482.09155,1045.44019 481.64178,1046.06897 481.36578,1046.79468C481.08975,1047.52051 480.95175,1048.30249 480.95175,1049.14087C480.95175,1050.12219 481.13065,1051.10864 481.48843,1052.10022C481.84622,1053.0918 482.37268,1054.05786 483.06784,1054.99829L482.94516,1055.33557C481.77979,1055.90808 480.60419,1056.19446 479.41837,1056.19434C478.72324,1056.19446 478.0741,1056.08704 477.47098,1055.87231C476.86783,1055.65771 476.34647,1055.34595 475.90692,1054.93701C475.46735,1054.52808 475.11978,1054.02722 474.8642,1053.4342C474.60864,1052.84143 474.48087,1052.17688 474.48087,1051.4408C474.48087,1050.23462 474.77222,1049.09998 475.35489,1048.03674C475.93759,1046.97363 476.70938,1046.00256 477.67032,1045.12329C478.63123,1044.24426 479.74548,1043.45715 481.01309,1042.76196C482.28067,1042.06677 483.58917,1041.479 484.93857,1040.99854C486.28793,1040.51807 487.6424,1040.15015 489.00204,1039.89441C490.3616,1039.63892 491.62411,1039.51111 492.78949,1039.51111C494.93622,1039.51111 496.77115,1039.79736 498.29434,1040.36987C499.81747,1040.94226 501.05441,1041.77539 502.00513,1042.86926C502.95581,1043.96313 503.65094,1045.28687 504.09055,1046.8407C504.53009,1048.39453 504.74988,1050.15283 504.74991,1052.11548C504.74988,1053.46497 504.6936,1054.94727 504.58124,1056.56238C504.46875,1058.17749 504.34097,1059.86938 504.19788,1061.63794C504.05472,1063.40637 503.92694,1065.23108 503.81454,1067.11206C503.70206,1068.99304 503.64584,1070.86377 503.64587,1072.72424C503.64584,1075.66833 504.19275,1077.88147 505.28659,1079.36377C506.38037,1080.84607 507.81665,1081.58728 509.5954,1081.58728C511.16965,1081.58728 512.92792,1081.00452 514.87024,1079.83911L515.75964,1081.15796C514.38977,1082.52771 512.89728,1083.57043 511.28214,1084.28601C509.66693,1085.00146 507.96997,1085.35938 506.19128,1085.35938C504.86234,1085.35938 503.63562,1085.1344 502.51117,1084.68457C501.38666,1084.23486 500.4155,1083.56531 499.59772,1082.6759C498.77988,1081.7865 498.14609,1080.66724 497.69632,1079.31787C497.24652,1077.96838 497.02161,1076.40442 497.02164,1074.62561C497.02161,1074.09412 497.03693,1073.5625 497.06763,1073.03088C497.09824,1072.49927 497.16473,1071.93713 497.26697,1071.34424L497.08298,1071.34424C496.2038,1073.10254 495.18665,1074.83521 494.03156,1076.54248C492.87637,1078.24951 491.60876,1079.77271 490.22873,1081.11194C488.84866,1082.45105 487.37662,1083.53467 485.81259,1084.36267C484.24854,1085.19067 482.60779,1085.60474 480.89041,1085.60474C479.47971,1085.60474 478.19165,1085.35938 477.02628,1084.86865C475.8609,1084.37805 474.8642,1083.70337 474.03619,1082.8446C473.20816,1081.98596 472.56412,1080.96875 472.10413,1079.79309C471.6441,1078.61768 471.41409,1077.33459 471.41409,1075.94434C471.41409,1074.14526 471.74634,1072.50964 472.4108,1071.03748C473.07526,1069.56555 473.9953,1068.24683 475.1709,1067.08142C476.34647,1065.91602 477.75208,1064.90918 479.3877,1064.06067C481.02328,1063.21228 482.80203,1062.50684 484.72388,1061.94458C486.64572,1061.38232 488.67999,1060.96326 490.82675,1060.68726C492.97348,1060.41125 495.1611,1060.27319 497.38965,1060.27307C497.53275,1058.98511 497.6503,1057.73804 497.74234,1056.53174C497.83432,1055.32544 497.88031,1053.99646 497.88034,1052.54492zM479.05035,1073.61365C479.05035,1074.41101 479.13727,1075.17249 479.31104,1075.89832C479.4848,1076.62427 479.76083,1077.26306 480.13907,1077.81506C480.5173,1078.36707 480.99774,1078.80164 481.58044,1079.11853C482.16312,1079.43542 482.86337,1079.59387 483.68118,1079.59387C484.6012,1079.59387 485.55191,1079.37915 486.53329,1078.94983C487.51462,1078.52039 488.48065,1077.92749 489.43137,1077.17114C490.38205,1076.41467 491.29187,1075.50989 492.1608,1074.45703C493.02969,1073.40405 493.81174,1072.25403 494.5069,1071.00684C495.202,1069.75977 495.77957,1068.44617 496.23962,1067.06604C496.69958,1065.68604 497.00116,1064.27026 497.14432,1062.8186C495.63135,1062.85962 494.12863,1062.95667 492.63617,1063.10986C491.14365,1063.26331 489.72781,1063.50354 488.38867,1063.83057C487.0495,1064.15771 485.80746,1064.58716 484.66254,1065.11865C483.51761,1065.65027 482.53113,1066.30957 481.70313,1067.09668C480.87506,1067.88391 480.22595,1068.81409 479.75571,1069.88757C479.28546,1070.96094 479.05035,1072.20288 479.05035,1073.61365z"/>
     <path fill="#000000" id="imagebot_125" d="M 530.787 1084.35 C 530.255 1082.41 529.688 1080.37 529.085 1078.24 C 528.482 1076.12 527.868 1073.98 527.245 1071.83 C 526.621 1069.69 525.997 1067.57 525.374 1065.49 C 524.75 1063.4 524.147 1061.42 523.565 1059.54 C 522.982 1057.66 522.43 1055.91 521.909 1054.31 C 521.387 1052.7 520.922 1051.32 520.513 1050.15 C 520.084 1048.95 519.67 1047.96 519.271 1047.19 C 518.872 1046.43 518.458 1045.83 518.029 1045.4 C 517.6 1044.97 517.15 1044.67 516.68 1044.51 C 516.209 1044.35 515.688 1044.26 515.116 1044.26 C 514.461 1044.26 513.761 1044.34 513.015 1044.48 C 512.269 1044.62 511.374 1044.82 510.331 1045.06 L 509.871 1042.85 C 511.098 1042.4 512.299 1042 513.475 1041.63 C 514.65 1041.26 515.739 1040.94 516.741 1040.68 C 517.743 1040.41 518.632 1040.21 519.409 1040.06 C 520.186 1039.92 520.799 1039.85 521.249 1039.85 C 521.781 1039.85 522.287 1039.94 522.767 1040.12 C 523.248 1040.31 523.718 1040.63 524.178 1041.09 C 524.638 1041.55 525.083 1042.18 525.512 1042.99 C 525.941 1043.8 526.371 1044.82 526.8 1046.04 C 527.086 1046.82 527.429 1047.82 527.827 1049.03 C 528.226 1050.25 528.66 1051.63 529.131 1053.17 C 529.601 1054.72 530.102 1056.4 530.633 1058.22 C 531.165 1060.04 531.702 1061.93 532.244 1063.91 C 532.785 1065.88 533.322 1067.9 533.854 1069.96 C 534.385 1072.03 534.896 1074.07 535.387 1076.1 C 536.409 1073.42 537.477 1070.62 538.592 1067.71 C 539.706 1064.8 540.841 1061.87 541.996 1058.92 C 543.151 1055.98 544.301 1053.06 545.446 1050.17 C 546.591 1047.28 547.695 1044.51 548.758 1041.87 C 548.942 1041.42 549.193 1041.05 549.509 1040.77 C 549.826 1040.48 550.179 1040.25 550.567 1040.08 C 550.956 1039.9 551.36 1039.78 551.779 1039.71 C 552.198 1039.64 552.612 1039.6 553.021 1039.6 C 553.696 1039.6 554.35 1039.7 554.984 1039.89 C 555.617 1040.09 556.221 1040.33 556.793 1040.62 C 555.873 1042.11 554.917 1043.77 553.926 1045.6 C 552.934 1047.43 551.917 1049.38 550.874 1051.46 C 549.831 1053.53 548.784 1055.69 547.731 1057.94 C 546.678 1060.19 545.63 1062.49 544.587 1064.83 C 543.545 1067.17 542.517 1069.52 541.505 1071.88 C 540.493 1074.24 539.517 1076.57 538.576 1078.86 C 537.615 1081.17 536.706 1083.45 535.847 1085.71 C 534.988 1087.97 534.15 1090.16 533.332 1092.27 C 532.514 1094.39 531.712 1096.43 530.925 1098.38 C 530.138 1100.33 529.335 1102.16 528.517 1103.85 C 527.74 1105.43 526.912 1106.89 526.033 1108.25 C 525.154 1109.61 524.183 1110.79 523.12 1111.78 C 522.057 1112.77 520.886 1113.55 519.608 1114.13 C 518.331 1114.7 516.915 1114.98 515.361 1114.98 C 514.4 1114.98 513.531 1114.86 512.754 1114.6 C 511.977 1114.35 511.318 1114.01 510.776 1113.59 C 510.234 1113.17 509.82 1112.68 509.534 1112.13 C 509.248 1111.58 509.105 1111 509.105 1110.38 C 509.105 1109.71 509.304 1109.01 509.703 1108.28 C 510.101 1107.56 510.628 1107.01 511.282 1106.64 C 512.141 1107.17 513.01 1107.55 513.889 1107.78 C 514.768 1108 515.555 1108.11 516.25 1108.11 C 517.927 1108.11 519.414 1107.66 520.712 1106.75 C 522.011 1105.84 523.232 1104.48 524.377 1102.66 C 525.522 1100.84 526.672 1098.56 527.827 1095.82 C 528.982 1093.08 530.265 1089.87 531.676 1086.19 L 532.289 1084.56 L 530.787 1084.35 Z"/>
     <path fill="#000000" id="imagebot_124" d="M 568.753 1065.82 L 568.14 1065.76 C 567.997 1062.49 567.869 1059.16 567.757 1055.77 C 567.644 1052.37 567.547 1049 567.465 1045.64 C 567.384 1042.29 567.322 1039.01 567.281 1035.79 C 567.24 1032.57 567.22 1029.49 567.22 1026.57 C 567.22 1024.4 567.23 1022.35 567.251 1020.41 C 567.271 1018.46 567.312 1016.65 567.373 1014.98 C 567.394 1014.53 567.557 1014.14 567.864 1013.83 C 568.171 1013.51 568.559 1013.24 569.029 1013.03 C 569.5 1012.82 570.026 1012.66 570.609 1012.55 C 571.192 1012.45 571.779 1012.4 572.372 1012.4 C 573.088 1012.4 573.855 1012.48 574.672 1012.63 C 575.49 1012.78 576.287 1013 577.064 1013.29 C 576.471 1017.58 575.899 1021.86 575.347 1026.11 C 574.795 1030.36 574.274 1034.65 573.783 1038.96 C 573.292 1043.27 572.837 1047.64 572.418 1052.05 C 571.999 1056.47 571.616 1060.98 571.268 1065.58 L 568.753 1065.82 Z M 569.183 1085.33 C 568.467 1085.33 567.813 1085.18 567.22 1084.88 C 566.627 1084.59 566.126 1084.2 565.717 1083.73 C 565.308 1083.26 564.992 1082.72 564.767 1082.11 C 564.542 1081.5 564.429 1080.86 564.429 1080.21 C 564.429 1079.29 564.583 1078.48 564.889 1077.78 C 565.196 1077.09 565.59 1076.5 566.07 1076.02 C 566.55 1075.54 567.092 1075.18 567.695 1074.95 C 568.299 1074.71 568.897 1074.59 569.489 1074.59 C 570.185 1074.59 570.829 1074.72 571.422 1074.98 C 572.014 1075.23 572.52 1075.58 572.94 1076.02 C 573.359 1076.46 573.686 1076.97 573.921 1077.55 C 574.156 1078.14 574.274 1078.76 574.274 1079.41 C 574.274 1080.13 574.156 1080.84 573.921 1081.54 C 573.686 1082.25 573.348 1082.88 572.909 1083.44 C 572.469 1084 571.933 1084.46 571.299 1084.81 C 570.665 1085.15 569.96 1085.33 569.183 1085.33 Z"/>
    </g>
    <path fill="#000000" id="imagebot_122" d="M 431.673 857.714 C 427.201 854.806 422.803 850.92 420.763 848.074 C 418.225 844.533 417.851 841.875 419.419 838.508 C 420.004 837.253 420.964 835.986 421.964 835.149 C 424.106 833.356 425.928 833.458 428.551 835.517 C 429.626 836.362 431.312 838.223 432.234 839.582 C 432.517 840 432.786 840.344 432.832 840.347 C 432.878 840.35 433.312 839.827 433.797 839.184 C 435.988 836.285 438.439 834.311 440.29 833.956 C 443.318 833.376 447.639 836.918 448.648 840.808 C 448.885 841.721 448.908 843.064 448.702 843.992 C 448.203 846.242 445.731 849.49 442.446 852.209 C 440.152 854.108 433.522 858.404 432.884 858.405 C 432.803 858.405 432.258 858.094 431.673 857.714 L 431.673 857.714 L 431.673 857.714 Z"/>
   </g>
  </g>
 </g>
 <metadata>image/svg+xmlOpenclipartRed bull 22013-05-01T03:07:23This bull image has been used in &lt;a href="http://en.globalquiz.org/animals-quiz/"&gt;animals quiz&lt;/a&gt;https://openclipart.org/detail/177585/red-bull-2-by-animals-177585animalsanimalsbullheraldy</metadata>
</svg>