<?xml version="1.0" encoding="utf-8"?>
<!-- Generator: Adobe Illustrator 15.0.2, SVG Export Plug-In . SVG Version: 6.00 Build 0)  -->
<!DOCTYPE svg PUBLIC "-//W3C//DTD SVG 1.1//EN" "http://www.w3.org/Graphics/SVG/1.1/DTD/svg11.dtd">
<svg version="1.1" id="Layer_1" xmlns="http://www.w3.org/2000/svg" xmlns:xlink="http://www.w3.org/1999/xlink" x="0px" y="0px"
	 width="90.729px" height="72.041px" viewBox="0 0 90.729 72.041" enable-background="new 0 0 90.729 72.041" xml:space="preserve">
<path d="M23.511,0h1.206c5.526,0,10.751,4.521,15.674,13.564c1.406,2.512,2.512,5.125,3.315,7.837l1.507-0.301h1.809
	c1.105-5.024,4.521-10.751,10.248-17.181C60.185,1.407,62.797,0.101,65.108,0h1.506c2.513,0,3.92,1.507,4.221,4.521v0.603
	c0,1.658-1.205,2.763-3.617,3.316h-0.301c-2.01,0-3.015-1.206-3.015-3.617c0.302-0.854,0.804-1.457,1.507-1.809
	c1.205,0.101,1.809,0.402,1.809,0.904v1.206c0,0.402-0.201,0.603-0.604,0.603h-1.205l-0.904-0.603v0.603
	c0,1.256,1.005,1.959,3.014,2.11c1.809-0.753,2.713-1.758,2.713-3.014c-0.451-2.813-1.858-4.22-4.219-4.22
	c-6.783,0-12.811,6.732-18.086,20.196c-0.201,0.352-0.302,0.753-0.302,1.206l0.603,2.11v0.603l-1.507,1.809
	c0.251,1.005,0.553,1.507,0.904,1.507h0.302c2.612-6.481,10.148-12.509,22.607-18.086c4.873-1.809,9.092-2.713,12.658-2.713h1.207
	c4.219,0,6.33,1.407,6.33,4.22c-3.768,7.988-5.678,12.911-5.729,14.77c-0.854,2.813-2.963,6.028-6.329,9.646
	c1.407,1.959,2.11,4.169,2.11,6.631c0,2.763-1.307,5.376-3.919,7.837c-1.959,1.205-3.969,1.809-6.028,1.809v0.301
	c1.406,2.965,2.109,5.376,2.109,7.234c-0.502,7.234-2.512,11.354-6.027,12.359h-0.604c-6.682-2.463-11.705-6.883-15.071-13.264
	c-2.612-4.822-4.019-9.746-4.22-14.77h-0.302l-1.206,6.934h-0.603v-0.303l-0.904-6.631h-0.302c0,6.983-3.014,14.117-9.042,21.402
	c-4.773,4.42-8.29,6.631-10.55,6.631h-0.301c-3.617-0.904-5.626-5.125-6.028-12.66c0-1.457,0.703-3.869,2.11-7.234h-0.301
	c-4.773,0-7.888-2.612-9.344-7.837c0-0.151-0.101-0.754-0.302-1.809c0-2.311,0.704-4.622,2.11-6.933
	c-3.015-2.009-5.526-6.531-7.536-13.564C3.215,18.437,1.708,14.82,0,11.153c0.452-2.612,2.461-3.919,6.028-3.919h1.206
	c9.444,0,19.693,4.622,30.745,13.866c3.215,3.718,4.823,6.029,4.823,6.933h0.603c0-0.352,0.201-0.955,0.603-1.809
	c-1.005,0-1.507-0.704-1.507-2.11v-0.904l0.603-0.904v-0.301c-3.316-10.148-8.139-16.98-14.469-20.497
	c-1.708-0.603-3.014-0.904-3.918-0.904c-2.612,0-4.019,1.608-4.22,4.823c0.804,1.607,1.909,2.411,3.315,2.411s2.11-0.703,2.11-2.11
	V5.426L25.32,5.727h-1.206c-0.301,0-0.603-0.402-0.904-1.206c0.352-1.005,0.955-1.507,1.809-1.507
	c1.206,0.502,1.809,1.407,1.809,2.713c0,1.809-1.004,2.713-3.014,2.713c-2.361,0-3.768-1.306-4.22-3.918
	C20.396,1.507,21.703,0,23.511,0z M2.713,11.153c0,0.552,0.703,2.261,2.11,5.124h0.301c0-2.813,1.507-4.823,4.521-6.028V9.947
	l-2.11-0.301H6.028C5.124,9.646,4.019,10.148,2.713,11.153z M5.727,16.578c0,3.467,1.507,5.577,4.521,6.33h0.904
	c3.014-0.452,4.521-1.658,4.521-3.617h0.603v0.302c0,2.813-2.009,4.22-6.028,4.22c-0.502,0-1.306-0.402-2.412-1.206H7.536v0.301
	c2.663,7.837,5.777,11.755,9.344,11.755c3.818-0.904,9.444-2.813,16.88-5.727l5.124-0.603c0.352,0.201,0.854,0.301,1.507,0.301
	c-2.311-2.411-4.622-3.617-6.933-3.617c-1.858,0-3.768,1.206-5.727,3.617c-1.859,0.603-3.567,0.904-5.124,0.904h-0.301
	c-4.019,0-7.234-1.306-9.646-3.918V25.32c3.115,2.411,6.431,3.617,9.947,3.617h0.301c-2.612-1.406-3.918-4.823-3.918-10.248
	c-1.005-4.823-2.311-7.234-3.918-7.234c-1.356-0.804-2.462-1.206-3.316-1.206C7.736,11.253,5.727,13.363,5.727,16.578z
	 M11.755,14.167h0.904c1.708,0,2.914,1.306,3.617,3.918v0.603h-0.603c0-2.21-1.005-3.517-3.015-3.919
	c-1.557,0-2.663,0.603-3.315,1.809v0.603c0,1.407,0.703,2.11,2.11,2.11c0.804-0.301,1.206-0.603,1.206-0.904
	c-1.004,0-1.507-0.301-1.507-0.904V16.88c0.05-0.402,0.251-0.603,0.603-0.603h0.603c0.402,0,0.804,0.603,1.206,1.809
	c-0.251,0.804-0.753,1.407-1.507,1.809h-0.904c-1.105,0-1.909-0.502-2.412-1.507v-1.206C9.143,15.172,10.148,14.167,11.755,14.167z
	 M14.468,36.774c-1.206,1.155-1.809,3.064-1.809,5.727v1.507h0.603c0-2.361,1.407-4.672,4.22-6.933
	C15.523,37.075,14.519,36.975,14.468,36.774z M27.43,45.214h-0.603v-1.206c0-1.959,1.909-4.571,5.727-7.837
	c-1.809,0.251-2.914,0.452-3.315,0.603c-1.356-0.201-2.462-0.302-3.316-0.302h-1.206c-5.426,0-8.842,1.708-10.249,5.125
	c-0.402,1.607-0.603,2.612-0.603,3.015v1.205c0.653,2.612,2.964,3.918,6.933,3.918c2.411-1.055,3.617-2.662,3.617-4.822v-0.301
	c-0.302-2.814-1.407-4.22-3.316-4.22c-1.557,0-2.663,0.703-3.315,2.11v0.904c0,1.104,0.502,1.909,1.507,2.411h0.904
	c0.502-0.402,0.904-0.603,1.206-0.603v-0.603l-0.603,0.301h-0.301c-0.302,0-0.603-0.301-0.904-0.904v-0.301
	c0-0.302,0.301-0.604,0.904-0.905H21.1c0.302,0,0.603,0.301,0.904,0.905v1.205c0,0.252-0.502,0.754-1.507,1.508H18.99
	c-1.206-0.703-1.809-1.607-1.809-2.713v-0.604c0-1.858,1.306-2.964,3.918-3.315h0.302c2.26,0,3.567,1.708,3.918,5.124
	c-0.201,1.607-1.005,3.115-2.412,4.521h0.301c3.015-0.251,8.34-5.777,15.976-16.578c1.005-0.804,1.708-1.206,2.11-1.206v-0.301
	h-0.603c-2.713,1.155-6.732,4.371-12.057,9.646C27.832,42.953,27.43,44.359,27.43,45.214z M16.578,11.454
	c2.21,2.009,3.316,6.129,3.316,12.358c1.256,3.014,2.763,4.521,4.521,4.521h0.301c2.713,0,4.32-1.206,4.823-3.617v-0.904
	c0-1.256-0.804-2.461-2.411-3.617h-1.206c-1.809,0.251-2.713,1.156-2.713,2.713c0.402,1.407,1.206,2.11,2.412,2.11
	c0.904-0.402,1.407-0.804,1.507-1.206v-0.301l-0.603,0.301h-0.301c-0.302,0-0.603-0.301-0.904-0.904v-0.603
	c0.05-0.402,0.251-0.603,0.603-0.603c1.407,0,2.11,0.603,2.11,1.809c-0.603,1.407-1.507,2.11-2.713,2.11
	c-1.507,0-2.412-1.005-2.713-3.014c0-1.859,1.407-2.964,4.22-3.316c2.412,1.356,3.617,3.266,3.617,5.727
	c0.753-0.402,1.558-0.603,2.412-0.603h1.206c1.457,0,3.567,1.004,6.33,3.014v-0.603c-0.402,0-1.306-1.005-2.713-3.014
	C28.485,16.578,21.451,12.459,16.578,11.454z M20.497,59.983v0.904c0.804,4.019,2.712,6.028,5.727,6.028h1.206
	c2.813,0,4.923-1.809,6.33-5.426v-1.205c0-2.512-1.708-4.119-5.125-4.822c-3.014,0.451-4.521,1.758-4.521,3.918v0.301
	c0,2.211,1.005,3.316,3.015,3.316c1.809-0.402,2.713-1.307,2.713-2.713c-0.402-0.904-0.804-1.406-1.206-1.508h-0.301
	c0,1.407-0.402,2.11-1.206,2.11c-0.302,0-0.603-0.302-0.904-0.904v-0.904c0.251-0.804,1.155-1.206,2.713-1.206
	c1.004,0.805,1.507,1.709,1.507,2.713c0,1.607-1.105,2.613-3.315,3.015c-2.412,0-3.617-1.206-3.617-3.617v-0.302
	c0.603-3.215,2.11-4.822,4.521-4.822h1.507c0.904,0,2.01,0.604,3.316,1.809h0.301v-0.302c0-0.552,0.301-2.663,0.904-6.329
	c-1.809,1.406-3.918,2.109-6.33,2.109l-0.301-0.604v-0.301h1.206c3.215,0,5.325-1.307,6.33-3.918
	c0.703-3.617,2.914-7.536,6.631-11.756v-2.411c-1.256,0.402-4.572,4.722-9.947,12.961c-2.411,2.411-5.325,4.521-8.741,6.329
	C21.301,54.96,20.497,57.472,20.497,59.983z M21.401,65.41v0.301c1.004,2.211,2.11,3.314,3.315,3.314h0.603
	c1.055,0,2.06-0.502,3.014-1.506h-2.11C24.767,67.52,23.16,66.816,21.401,65.41z M23.813,35.87h4.22
	c0.452,0,0.854,0.101,1.206,0.301c2.512,0,5.828-1.607,9.947-4.823c0.653-0.402,1.658-0.603,3.015-0.603
	c0-0.402-0.201-0.603-0.603-0.603h-0.904C35.568,30.143,29.941,32.051,23.813,35.87z M34.965,49.133
	c-0.603,2.41-0.904,4.621-0.904,6.631s0.201,3.517,0.603,4.521c-0.201,0.352-0.302,0.754-0.302,1.205v0.302
	c2.01-1.657,4.019-4.974,6.029-9.946h-0.302l-1.507,0.602c-2.21-0.25-3.316-1.355-3.316-3.314H34.965z M35.568,48.529
	c0.402,2.211,1.507,3.316,3.315,3.316c1.809-1.006,2.713-2.211,2.713-3.617c0-1.256-0.502-2.16-1.507-2.713h-0.603
	c-1.005,0-1.507,0.301-1.507,0.904h-0.603v-0.302c0.553-1.005,1.356-1.507,2.412-1.507c0.603,0.1,1.306,0.603,2.11,1.507
	c0.402-0.854,0.603-2.462,0.603-4.823v-1.206c0-0.251-0.201-1.356-0.603-3.315h-0.301c-3.667,3.969-5.677,7.787-6.028,11.455V48.529
	z M37.376,46.721l0.603,0.302c0.352-0.201,0.753-0.302,1.206-0.302l0.603,0.904v0.302c0,0.302-0.402,0.603-1.206,0.903
	c-0.804-0.301-1.206-0.602-1.206-0.903V46.721z M48.831,36.472c0,0.502-0.302,1.809-0.904,3.919
	c0.402,3.165,0.603,5.174,0.603,6.029h0.302c0-0.904,0.804-1.508,2.411-1.809c1.206,0,1.909,0.803,2.11,2.411v0.603
	c0,0.302-0.402,0.703-1.206,1.205c-0.804-0.301-1.206-0.602-1.206-0.903v-0.603c0.051-0.402,0.252-0.604,0.604-0.604h0.603
	l0.603,0.302v-0.302c-0.301-0.804-0.603-1.205-0.904-1.205H50.64c-1.005,0.502-1.508,1.406-1.508,2.713
	c0.604,2.41,1.607,3.617,3.015,3.617c1.809,0,2.713-1.105,2.713-3.316v-1.809C53.704,42.752,51.694,39.336,48.831,36.472z
	 M48.529,30.143v0.603h0.603c1.508,0,4.02,1.407,7.536,4.22c1.909,0.603,3.718,1.005,5.426,1.206l0.603-0.301h4.221v-0.302
	c-6.632-3.416-11.455-5.124-14.469-5.124c0-0.201-1.005-0.301-3.015-0.301H48.529z M48.831,33.157l0.301,0.603v0.603l-0.301,1.507
	c2.109,0.955,4.723,5.375,7.837,13.263c1.306,1.406,3.114,2.109,5.426,2.109H63.3v0.301c0,0.402-0.201,0.604-0.604,0.604
	c-2.662,0-4.772-0.804-6.33-2.412v0.303c0.352,0.753,0.754,2.863,1.206,6.329c-0.201,0-0.302,0.101-0.302,0.302h0.302
	c1.457-1.205,2.562-1.809,3.315-1.809h1.809c3.014,0.804,4.521,2.311,4.521,4.521v0.904c-0.251,2.01-1.155,3.014-2.713,3.014v-0.603
	c1.406,0,2.109-1.005,2.109-3.015v-0.301c0-1.758-1.406-3.064-4.219-3.918h-0.302c-3.417,0.703-5.124,2.21-5.124,4.521v1.206
	c0,2.763,2.109,4.672,6.33,5.727h1.507c3.015,0,4.823-2.311,5.425-6.933c-0.753-5.626-2.16-8.44-4.219-8.44
	c-4.17-2.059-8.289-6.48-12.359-13.262c-1.457-2.16-2.964-3.868-4.521-5.124H48.831z M49.132,31.348v0.301
	c1.407,0,5.024,4.12,10.852,12.358c2.311,2.662,4.823,4.471,7.535,5.426v-0.301c-1.406-1.559-2.109-3.064-2.109-4.521
	c0.201-3.216,1.607-4.823,4.221-4.823h0.301c2.411,0.553,3.617,1.658,3.617,3.315v0.302c0,1.206-0.604,2.21-1.809,3.015h-0.904
	c-1.607-0.201-2.412-0.904-2.412-2.11c0.402-0.904,0.805-1.407,1.207-1.507h0.602c0.303,0,0.604,0.301,0.904,0.905v0.301
	c0,0.302-0.301,0.604-0.904,0.904l-0.904-0.603v0.603c0.201,0.604,0.805,0.904,1.809,0.904h0.303
	c1.004-0.452,1.506-1.457,1.506-3.014c-0.451-1.607-1.758-2.411-3.918-2.411c-1.809,0.753-2.713,2.06-2.713,3.918v0.603
	c0.452,3.215,1.959,4.822,4.521,4.822c3.215,0,5.225-1.306,6.028-3.918v-1.205c0-3.718-2.312-6.431-6.933-8.139
	c-0.201,0-0.301,0.101-0.301,0.302l-1.508-0.302h-3.315c-0.954,0-1.96,0.101-3.015,0.302l-3.617-0.603h-0.301v0.301
	c4.019,2.462,6.028,5.375,6.028,8.742H63.3c0-3.818-4.422-8.44-13.264-13.866H49.132z M67.519,28.635v0.301h1.207
	c2.863,0,5.978-1.206,9.344-3.617v0.301c-2.462,2.612-5.678,3.918-9.646,3.918h-0.301c-3.868,0-6.581-1.306-8.139-3.918
	c-0.804-0.402-1.908-0.603-3.315-0.603c-1.356,0-3.567,1.105-6.632,3.316v0.301h0.604c0.402,0,0.603-0.101,0.603-0.301
	c4.069,0,10.299,1.809,18.688,5.426c0.804,0.402,2.109,0.703,3.918,0.904c3.668,0,6.783-4.019,9.344-12.057h-0.301
	c-1.055,0.804-2.16,1.206-3.315,1.206c-3.617-0.553-5.426-2.261-5.426-5.124c0-1.558,1.005-3.064,3.015-4.521h1.205
	c2.412,0.201,3.617,1.206,3.617,3.014v0.301c0,1.608-0.803,2.412-2.411,2.412h-0.904c-0.251,0-0.753-0.502-1.507-1.507v-0.904
	c0-0.301,0.402-0.703,1.205-1.206h0.604c0.402,0.05,0.603,0.251,0.603,0.603v0.603c0,0.402-0.503,0.603-1.507,0.603
	c0.402,0.502,0.603,0.904,0.603,1.206h0.603c1.407,0,2.111-0.703,2.111-2.11c0-1.457-1.105-2.261-3.316-2.412h-0.604
	c-1.809,1.055-2.713,2.563-2.713,4.521c1.006,2.412,2.613,3.617,4.823,3.617h0.904c2.513,0,4.019-2.311,4.521-6.933
	c0-2.763-2.109-4.672-6.329-5.727c-3.919,0-6.229,3.115-6.933,9.344C71.337,25.621,69.931,28.635,67.519,28.635z M50.338,27.128
	v0.301c2.663-2.01,4.772-3.014,6.33-3.014h0.904c1.206,0.201,2.11,0.301,2.713,0.301c0-2.713,1.306-4.521,3.919-5.426
	c2.611,0.553,3.918,1.558,3.918,3.014c-0.201,2.21-1.105,3.316-2.713,3.316h-0.301c-1.105,0-1.91-0.603-2.412-1.809
	c0-1.407,0.703-2.11,2.11-2.11l0.603,0.904v0.301c0,0.301-0.402,0.603-1.205,0.904c-0.402-0.201-0.704-0.301-0.904-0.301
	c0.451,1.004,1.154,1.507,2.109,1.507c1.406-0.452,2.109-1.356,2.109-2.713c-0.602-1.406-1.506-2.11-2.712-2.11h-1.206
	c-0.955,0-1.758,1.206-2.411,3.617v0.603c0,2.612,1.809,3.918,5.425,3.918c2.864,0,4.472-3.818,4.824-11.454
	c0-1.658,0.903-3.466,2.712-5.426h-0.302C61.843,16.428,54.005,21.652,50.338,27.128z M55.462,49.434
	c0,1.406-1.004,2.412-3.014,3.014c-0.402,0-1.105-0.2-2.11-0.602v0.301c1.759,4.32,3.667,7.535,5.728,9.646
	c0-0.904,0.201-2.713,0.603-5.426c-0.201-2.964-0.503-5.274-0.904-6.933H55.462z M62.396,57.873
	c1.406,0.252,2.109,0.654,2.109,1.206v0.904c0,0.302-0.301,0.603-0.904,0.904c-0.804,0-1.205-0.703-1.205-2.11h-0.302
	c-0.302,0-0.704,0.402-1.206,1.206v0.302c0,1.507,1.005,2.411,3.015,2.713v0.603h-0.302c-1.708,0-2.914-1.104-3.617-3.315
	C60.587,58.678,61.39,57.873,62.396,57.873z M64.505,67.52h-2.109c0,0.402,1.104,1.004,3.314,1.809
	c2.211-0.805,3.316-2.01,3.316-3.617h-0.301C67.318,66.916,65.911,67.52,64.505,67.52z M72.944,37.075v0.301
	c3.015,1.507,4.521,3.818,4.521,6.933h0.302c0.201-1.105,0.302-1.909,0.302-2.412c0-2.16-0.604-3.868-1.809-5.124
	C76.261,36.975,75.155,37.075,72.944,37.075z M81.083,9.947v0.302c3.014,1.206,4.521,3.215,4.521,6.028h0.301
	c1.408-2.763,2.111-4.572,2.111-5.426c-1.457-0.804-2.965-1.206-4.521-1.206C83.345,9.646,82.54,9.746,81.083,9.947z"/>
</svg>
