<svg width="476" height="326" xmlns="http://www.w3.org/2000/svg">

 <g id="imagebot_2">
  <title>imagebot_2</title>
  <g transform="translate(3 129) matrix(2.86017 0 0 2.86017 9.41828 1.43842)" id="imagebot_93">

   <metadata id="imagebot_92">image/svg+xml</metadata>
   <g transform="matrix(1.76478 0 0 1.76478 -288.749 -873.608)" id="imagebot_81" label="Layer 1">
    <g transform="translate(126.10954,530.50439)" id="imagebot_82">
     <path fill="#ff8080" fill-rule="evenodd" stroke-width="1px" id="imagebot_91" d="M48.95417,-27.53569C50.78291,-28.10021 51.59477,-29.00789 51.70569,-30.21519C51.86551,-31.97162 48.94099,-32.7775 47.43857,-32.07365C46.53428,-31.65 45.34264,-30.59654 45.27684,-29.34272C45.41442,-26.45842 47.29468,-25.13038 49.68095,-24.70012C54.31073,-23.86535 62.05087,-29.44328 67.96534,-30.39815C74.04865,-31.38028 76.50765,-28.95586 77.89535,-27.13068C75.00486,-29.13025 71.57181,-29.59105 68.80973,-29.14464C62.47226,-28.12037 56.58379,-22.40262 49.68023,-23.22951C46.17336,-23.77082 43.32251,-26.60861 44.23903,-29.95716C45.67977,-34.63816 51.26736,-33.87604 52.1109,-31.37033C52.96073,-28.84595 50.8357,-27.37031 48.95417,-27.53569z"/>
     <path fill="#ff8080" fill-rule="evenodd" stroke-width="1px" d="M81.76115,-32.67038C81.07723,-32.74166 80.37213,-32.42174 79.98801,-31.46454C79.91396,-32.15178 79.26983,-32.512 78.60824,-32.52599C76.48479,-32.11592 77.08939,-30.12881 78.11128,-29.10351C79.00072,-28.21112 80.06321,-27.36219 80.53106,-26.64068C81.1088,-27.64361 81.30769,-27.59751 81.93336,-28.2829C80.74315,-29.66642 81.83298,-31.02983 83.52293,-30.68967C83.72372,-31.62127 82.7695,-32.56528 81.76115,-32.67038z" id="imagebot_90"/>
     <path fill="#ff8080" fill-rule="evenodd" stroke-width="1px" d="M79.76611,-25.61871C69.60227,-30.7582 65.70011,-24.82521 68.16507,-21.17077C66.95695,-25.06221 69.85561,-26.59935 72.5799,-26.51528C77.16639,-26.37373 81.06573,-23.65385 82.71054,-22.95565L79.76611,-25.61871z" id="imagebot_89"/>
     <path fill="#ff8080" fill-rule="evenodd" stroke-width="1px" id="imagebot_88" d="M81.8699,-28.83108C82.47782,-27.84496 83.62576,-26.75605 84.01498,-25.43968C84.91978,-26.80045 86.41814,-27.45932 87.08898,-28.52647C87.88795,-29.74128 85.40642,-31.38581 84.55337,-29.50452C84.35532,-31.07631 80.83489,-30.7478 81.8699,-28.83108z"/>
     <path fill="#ff8080" fill-rule="evenodd" stroke-width="1px" d="M85.73812,-25.68811C95.90195,-30.8276 100.28987,-24.82521 97.82491,-21.17077C99.03304,-25.06221 96.13438,-26.59935 93.41009,-26.51527C88.8236,-26.37373 85.34062,-24.27841 83.69582,-23.02504L85.73812,-25.68811z" id="imagebot_87"/>
     <path fill="#ff8080" fill-rule="evenodd" stroke-width="1px" d="M45.20164,-27.31001C39.16298,-32.4495 34.6393,-24.81222 39.67982,-23.43975C38.04688,-24.55119 37.93422,-26.35132 38.9767,-27.32832C40.23597,-28.16682 41.8055,-27.99591 43.34435,-27.15461C44.71808,-26.26009 45.76722,-25.01719 46.38307,-24.57719L45.20164,-27.31001z" id="imagebot_86"/>
     <path fill="#ff8080" fill-rule="evenodd" stroke-width="1px" id="imagebot_85" d="M115.65557,-26.98053C113.82683,-27.54505 113.01496,-28.45273 112.90405,-29.66003C112.74422,-31.41646 115.66875,-32.22234 117.17117,-31.51849C118.07546,-31.09484 119.2671,-30.04138 119.3329,-28.78756C119.19532,-25.90326 117.31506,-24.57522 114.92879,-24.14496C110.299,-23.31019 102.55887,-28.88812 96.6444,-29.84299C90.5611,-30.82512 88.1021,-28.4007 86.71439,-26.57552C89.60488,-28.57509 93.03793,-29.03589 95.80001,-28.58948C102.13748,-27.5652 108.02594,-21.84746 114.92951,-22.67435C118.43638,-23.21566 121.28723,-26.05345 120.3707,-29.402C118.92997,-34.083 113.34237,-33.32088 112.49884,-30.81517C111.64901,-28.29078 113.77404,-26.81515 115.65557,-26.98053z"/>
     <path fill="#ff8080" fill-rule="evenodd" stroke-width="1px" d="M119.74156,-26.92158C125.78023,-32.06107 129.19905,-25.97059 126.45663,-23.89101C127.60038,-26.28633 125.94919,-27.83246 124.3306,-27.74838C121.60562,-27.60684 119.53737,-24.88696 118.56013,-24.18876L119.74156,-26.92158z" id="imagebot_84"/>
     <path fill="none" fill-rule="evenodd" stroke="#ff8080" stroke-width="1px" d="M78.19413,-27.19324C79.82207,-25.60158 81.85554,-24.11669 83.03699,-21.83409C84.26299,-24.40557 85.47375,-25.68248 86.73859,-26.80759C87.55263,-27.61566 88.33308,-28.34825 88.92295,-29.06229C89.75154,-29.99925 89.93115,-31.81973 89.64797,-32.72058C88.38135,-35.91887 85.25339,-35.34303 83.50858,-33.09351C81.76031,-34.9823 79.59341,-35.57365 77.68108,-34.31449C74.43071,-32.2483 75.97617,-28.93648 78.19413,-27.19324z" id="imagebot_83"/>
    </g>
   </g>
  </g>
 </g>
 <metadata>image/svg+xmlOpenclipartRed bull 22013-05-01T03:07:23This bull image has been used in &lt;a href="http://en.globalquiz.org/animals-quiz/"&gt;animals quiz&lt;/a&gt;https://openclipart.org/detail/177585/red-bull-2-by-animals-177585animalsanimalsbullheraldy</metadata>
</svg>