<svg width="476" height="326" xmlns="http://www.w3.org/2000/svg">

 <g id="imagebot_2">
  <title>imagebot_2</title>
  <g transform="translate(82 -2) matrix(4.65009 0 0 4.65009 -21.4989 -67.02)" id="imagebot_110">

   <g transform="matrix(0.10326 0 0 0.10326 0 0)" id="imagebot_97">
    <path fill="#f08080" id="imagebot_109" d="M638.82745,529.46454C620.22101,515.71399 603.11713,500.33466 595.78046,490.75793C591.06885,484.6077 587.75537,478.09213 587.36151,474.20276C586.17169,462.45496 597.9917,447.78336 609.28754,446.98703C616.98102,446.44464 627.30286,452.12799 639.52441,463.63589L645.11664,468.90158L650.22693,463.85855C665.40906,448.87613 676.6803,444.07242 685.94464,448.63599C694.99023,453.0918 701.89136,463.48459 701.89136,472.65097C701.89136,476.97794 698.49963,484.59167 693.44568,491.6098C685.96259,502.00119 668.19263,519.47949 652.34509,532.03589C649.85071,534.01227 647.65155,535.6189 647.45819,535.60614C647.26477,535.59344 643.38098,532.82965 638.82745,529.46454L638.82745,529.46454z"/>
    <path fill="#ffb6c1" id="imagebot_108" d="M364.52252,263.20734C345.91605,249.45676 328.81219,234.07745 321.47556,224.50072C316.76392,218.35049 313.45047,211.83492 313.05655,207.94559C311.86676,196.19777 323.68674,181.52615 334.9826,180.72983C342.67612,180.18745 352.99792,185.8708 365.21951,197.37869L370.81174,202.64436L375.92197,197.60135C391.10416,182.61893 402.37537,177.81523 411.63971,182.37878C420.6853,186.83459 427.58646,197.2274 427.58646,206.39378C427.58646,210.72073 424.19473,218.33447 419.14078,225.3526C411.65765,235.74399 393.8877,253.22234 378.04019,265.77869C375.54578,267.75507 373.34665,269.36169 373.15326,269.34897C372.95987,269.33627 369.07605,266.57248 364.52252,263.20734L364.52252,263.20734z"/>
    <path fill="#b22222" id="imagebot_107" d="M379.18906,771.51587C360.58267,757.76532 343.47876,742.38599 336.14206,732.80927C331.43045,726.65906 328.11707,720.14343 327.72318,716.25409C326.53326,704.50629 338.35327,689.83472 349.64917,689.03833C357.34265,688.49597 367.66446,694.17932 379.88605,705.68726L385.47836,710.95288L390.58856,705.90985C405.77075,690.92743 417.04196,686.12378 426.30627,690.68732C435.35187,695.14313 442.25305,705.53595 442.25305,714.70233C442.25305,719.02924 438.86127,726.64301 433.80737,733.66113C426.32425,744.05249 408.55426,761.53088 392.70676,774.08722C390.21237,776.0636 388.01328,777.67023 387.81985,777.65747C387.62646,777.64478 383.74255,774.88104 379.18906,771.51587L379.18906,771.51587z"/>
    <path fill="#ff6347" id="imagebot_106" d="M225.59286,293.49362C206.98647,279.74304 189.88255,264.36371 182.54596,254.787C177.83426,248.63678 174.52086,242.1212 174.12695,238.23186C172.93716,226.48405 184.75716,211.81242 196.05296,211.0161C203.74657,210.47372 214.06836,216.15707 226.28986,227.66496L231.88216,232.93065L236.99236,227.88762C252.17445,212.9052 263.44577,208.1015 272.71008,212.66505C281.75568,217.12086 288.65686,227.51369 288.65686,236.68005C288.65686,241.007 285.26517,248.62074 280.21118,255.63889C272.72806,266.03027 254.95807,283.50861 239.11057,296.06497C236.61617,298.04135 234.41705,299.64795 234.22366,299.63522C234.03026,299.62253 230.14645,296.85876 225.59286,293.49362L225.59286,293.49362z"/>
    <path fill="#f08080" id="imagebot_105" d="M135.20061,639.99646C116.59415,626.24591 99.49029,610.86658 92.15361,601.28986C87.44201,595.13965 84.12861,588.62402 83.73471,584.73468C82.54481,572.98688 94.36484,558.31531 105.6607,557.51898C113.35422,556.97656 123.67604,562.65991 135.8976,574.16785L141.48985,579.43347L146.6001,574.3905C161.78221,559.40802 173.05347,554.60437 182.31779,559.16791C191.36337,563.62372 198.26456,574.01654 198.26456,583.18292C198.26456,587.50989 194.87282,595.1236 189.81886,602.14172C182.33574,612.53314 164.56578,630.01147 148.71829,642.56781C146.22389,644.54419 144.02477,646.15082 143.83141,646.13806C143.63799,646.12537 139.75414,643.36163 135.20061,639.99646L135.20061,639.99646z"/>
    <path fill="#ff0000" id="imagebot_104" d="M109.69596,523.37939C91.0895,509.62878 73.98563,494.24948 66.64899,484.67276C61.93736,478.52255 58.62396,472.00696 58.23004,468.11761C57.04019,456.36981 68.86019,441.69818 80.15605,440.90186C87.84956,440.35947 98.17138,446.04282 110.39295,457.55072L115.98521,462.81641L121.09545,457.77338C136.27756,442.79095 147.54881,437.98727 156.81314,442.55081C165.85872,447.00662 172.75989,457.39944 172.75989,466.5658C172.75989,470.89276 169.36816,478.5065 164.31421,485.52463C156.83109,495.91602 139.06113,513.39435 123.21363,525.95074C120.71924,527.92712 118.5201,529.53369 118.32675,529.521C118.13334,529.5083 114.24949,526.74451 109.69596,523.37939L109.69596,523.37939z"/>
    <path fill="#fa8072" id="imagebot_103" d="M507.30365,306.76224C488.6972,293.01166 471.59332,277.63235 464.25668,268.05563C459.54504,261.9054 456.23166,255.38983 455.83774,251.50047C454.64789,239.75267 466.4679,225.08105 477.76373,224.28473C485.45724,223.74236 495.77908,229.4257 508.00064,240.93359L513.5929,246.19928L518.70313,241.15625C533.88525,226.17381 545.15649,221.37013 554.42084,225.93369C563.46643,230.3895 570.36761,240.7823 570.36761,249.94868C570.36761,254.27563 566.97583,261.88937 561.92194,268.9075C554.43878,279.29889 536.66882,296.77722 520.82135,309.33359C518.32697,311.30997 516.12781,312.9166 515.93445,312.90387C515.74103,312.89117 511.85718,310.12738 507.30365,306.76224L507.30365,306.76224z"/>
    <path fill="#ff6347" id="imagebot_102" d="M226.79321,739.11707C208.18674,725.36652 191.08287,709.98718 183.74623,700.41046C179.03461,694.26025 175.72121,687.74463 175.32729,683.85529C174.13744,672.10748 185.95744,657.43591 197.2533,656.63953C204.94681,656.09717 215.26863,661.78052 227.4902,673.28839L233.08246,678.55408L238.1927,673.51105C253.37482,658.52863 264.64606,653.72498 273.9104,658.28851C282.95596,662.74432 289.85715,673.13715 289.85715,682.30353C289.85715,686.63043 286.46542,694.2442 281.41147,701.26233C273.92834,711.65369 256.15836,729.13208 240.31088,741.68842C237.81648,743.66479 235.61736,745.27142 235.424,745.25867C235.23059,745.24597 231.34673,742.48224 226.79321,739.11707L226.79321,739.11707z"/>
    <path fill="#ffb6c1" id="imagebot_101" d="M531.45215,741.44849C512.8457,727.69794 495.74182,712.3186 488.40518,702.74188C483.69354,696.59167 480.38016,690.07605 479.98624,686.18671C478.79639,674.4389 490.61639,659.76727 501.91223,658.97095C509.60574,658.42859 519.92755,664.11194 532.14917,675.61981L537.74139,680.8855L542.85162,675.84247C558.03375,660.86005 569.30499,656.0564 578.56934,660.61993C587.61493,665.07574 594.51605,675.46857 594.51605,684.63495C594.51605,688.96185 591.12439,696.57562 586.07037,703.59375C578.58728,713.98511 560.81732,731.46344 544.96985,744.01984C542.4754,745.99622 540.27631,747.60284 540.08295,747.59009C539.88953,747.57739 536.00568,744.81366 531.45215,741.44849L531.45215,741.44849z"/>
    <path fill="#cd5c5c" id="imagebot_100" d="M610.23682,404.56848C591.63037,390.8179 574.52649,375.4386 567.18988,365.86188C562.47821,359.71164 559.16479,353.19604 558.77087,349.30673C557.58105,337.5589 569.40106,322.8873 580.6969,322.09097C588.39044,321.54858 598.71222,327.23193 610.93384,338.73984L616.52606,344.00552L621.63629,338.96249C636.81842,323.98007 648.08966,319.17636 657.354,323.73993C666.3996,328.19574 673.30072,338.58853 673.30072,347.75491C673.30072,352.08188 669.90906,359.69559 664.85504,366.71375C657.37195,377.10513 639.60199,394.58347 623.75452,407.13983C621.26007,409.11621 619.06097,410.72284 618.86761,410.71008C618.67419,410.69739 614.79034,407.93362 610.23682,404.56848L610.23682,404.56848z"/>
    <path fill="#dc143c" id="imagebot_99" d="M139.10907,397.29419C120.50257,383.54361 103.39867,368.16431 96.06207,358.58759C91.35047,352.43735 88.03707,345.92178 87.64317,342.03244C86.45327,330.28464 98.27327,315.61301 109.56917,314.81668C117.26267,314.27429 127.58447,319.95764 139.80608,331.46555L145.39827,336.73123L150.50858,331.6882C165.69067,316.70578 176.96198,311.90207 186.22627,316.46564C195.27187,320.92145 202.17297,331.31424 202.17297,340.48062C202.17297,344.80759 198.78127,352.42133 193.72737,359.43945C186.24417,369.83084 168.47427,387.30917 152.62677,399.86554C150.13237,401.84192 147.93317,403.44855 147.73987,403.43582C147.54646,403.4231 143.66257,400.65933 139.10907,397.29419L139.10907,397.29419z"/>
    <path fill="#ff0000" id="imagebot_98" d="M611.32251,649.10608C592.71606,635.35553 575.61218,619.9762 568.27551,610.39948C563.5639,604.24927 560.25049,597.73364 559.85657,593.8443C558.66675,582.0965 570.48676,567.42487 581.78259,566.62854C589.47614,566.08618 599.79791,571.76953 612.01947,583.2774L617.61176,588.54309L622.72198,583.50006C637.90411,568.51764 649.17542,563.71399 658.43976,568.27753C667.48529,572.73334 674.38647,583.12616 674.38647,592.29254C674.38647,596.61945 670.99475,604.23322 665.9408,611.25134C658.4577,621.6427 640.68774,639.12109 624.84021,651.67743C622.34576,653.65381 620.14667,655.26044 619.95331,655.24768C619.75989,655.23499 615.87604,652.47119 611.32251,649.10608L611.32251,649.10608z"/>
   </g>
  </g>
 </g>
 <metadata>image/svg+xmlOpenclipartRed bull 22013-05-01T03:07:23This bull image has been used in &lt;a href="http://en.globalquiz.org/animals-quiz/"&gt;animals quiz&lt;/a&gt;https://openclipart.org/detail/177585/red-bull-2-by-animals-177585animalsanimalsbullheraldy</metadata>
</svg>